<mxfile host="embed.diagrams.net" modified="2024-07-16T07:06:14.683Z" agent="Mozilla/5.0 (X11; Ubuntu; Linux x86_64; rv:128.0) Gecko/20100101 Firefox/128.0" etag="RcrNVcAPy3PszwgIYtkb" version="24.6.3" type="embed">
  <diagram id="f106602c-feb2-e66a-4537-3a34d633f6aa" name="Page-1">
    <mxGraphModel grid="1" page="1" gridSize="10" guides="1" tooltips="1" connect="1" arrows="1" fold="1" pageScale="1" pageWidth="1169" pageHeight="827" background="none" math="0" shadow="0">
      <root>
        <mxCell id="0" />
        <mxCell id="1" parent="0" />
        <mxCell id="6A_LMK3GcHGA9ymQ-XDU-17" style="edgeStyle=orthogonalEdgeStyle;rounded=0;orthogonalLoop=1;jettySize=auto;html=1;exitX=1;exitY=0.5;exitDx=0;exitDy=0;entryX=0.5;entryY=0;entryDx=0;entryDy=0;strokeColor=#b85450;align=center;verticalAlign=middle;fontFamily=Helvetica;fontSize=11;fontColor=default;labelBackgroundColor=default;endArrow=none;endFill=0;dashed=1;dashPattern=8 8;fillColor=#f8cecc;" edge="1" parent="1" source="U0BUh_aV6mO99cxN8OCH-17" target="aUKGI_wqsEK1M9Z13f95-40">
          <mxGeometry relative="1" as="geometry" />
        </mxCell>
        <mxCell id="U0BUh_aV6mO99cxN8OCH-17" value="" style="strokeColor=#dddddd;shadow=1;strokeWidth=1;rounded=0;absoluteArcSize=1;arcSize=2;" vertex="1" parent="1">
          <mxGeometry x="30" y="65" width="150" height="60" as="geometry" />
        </mxCell>
        <mxCell id="U0BUh_aV6mO99cxN8OCH-18" value="&lt;div&gt;TP-Link&lt;/div&gt;&lt;div&gt;Network&lt;br&gt;&lt;/div&gt;&lt;div&gt;192.168.0.0/24&lt;br&gt;&lt;/div&gt;" style="editableCssRules=.*;html=1;fontColor=#999999;shape=image;verticalLabelPosition=middle;verticalAlign=middle;labelPosition=right;align=left;spacingLeft=20;part=1;points=[];imageAspect=0;image=data:image/svg+xml,PHN2ZyB4bWxucz0iaHR0cDovL3d3dy53My5vcmcvMjAwMC9zdmciIHhtbG5zOnY9Imh0dHBzOi8vdmVjdGEuaW8vbmFubyIgd2lkdGg9IjIwIiBoZWlnaHQ9IjIwIiB2aWV3Qm94PSIwIDAgMjAgMjAiPiYjeGE7CTxzdHlsZSB0eXBlPSJ0ZXh0L2NzcyI+JiN4YTsJLnN0MHtmaWxsOiM0Mjg1ZjQ7fSYjeGE7CS5zdDF7ZmlsbDojNjY5ZGY2O30mI3hhOwkuc3Qye2ZpbGw6I2FlY2JmYTt9JiN4YTsJPC9zdHlsZT4mI3hhOwk8cGF0aCBjbGFzcz0ic3QyIiBkPSJNMTQgMGg2djZoLTZ6Ii8+JiN4YTsJPHBhdGggY2xhc3M9InN0MSIgZD0iTTE3IDBoM3Y2aC0zeiIvPiYjeGE7CTxwYXRoIGNsYXNzPSJzdDIiIGQ9Ik0xNCAxNGg2djZoLTZ6Ii8+JiN4YTsJPHBhdGggY2xhc3M9InN0MSIgZD0iTTE3IDE0aDN2NmgtM3oiLz4mI3hhOwk8cGF0aCBjbGFzcz0ic3QyIiBkPSJNMCAwaDZ2NkgweiIvPiYjeGE7CTxwYXRoIGNsYXNzPSJzdDEiIGQ9Ik0zIDBoM3Y2SDN6Ii8+JiN4YTsJPHBhdGggY2xhc3M9InN0MiIgZD0iTTAgMTRoNnY2SDB6Ii8+JiN4YTsJPGcgY2xhc3M9InN0MSI+JiN4YTsJCTxwYXRoIGQ9Ik0zIDE0aDN2Nkgzek02IDJoOHYySDZ6Ii8+JiN4YTsJCTxwYXRoIGQ9Ik02IDE2aDh2Mkg2ek0xNiA2aDJ2OGgtMnpNMiA2aDJ2OEgyeiIvPiYjeGE7CTwvZz4mI3hhOwk8cGF0aCBjbGFzcz0ic3QwIiBkPSJNMiA2aDJ2Mkgyem0xNCAwaDJ2MmgtMnpNNiAyaDJ2Mkg2em0wIDE0aDJ2Mkg2eiIvPiYjeGE7PC9zdmc+;rounded=0;" vertex="1" parent="U0BUh_aV6mO99cxN8OCH-17">
          <mxGeometry width="30" height="30" relative="1" as="geometry">
            <mxPoint x="15" y="15" as="offset" />
          </mxGeometry>
        </mxCell>
        <mxCell id="FkthiYPeSRhGyDQ8fWFa-2" style="edgeStyle=orthogonalEdgeStyle;rounded=0;orthogonalLoop=1;jettySize=auto;html=1;exitX=0.5;exitY=1;exitDx=0;exitDy=0;entryX=0.5;entryY=0;entryDx=0;entryDy=0;strokeColor=default;align=center;verticalAlign=middle;fontFamily=Helvetica;fontSize=11;fontColor=default;labelBackgroundColor=default;endArrow=none;endFill=0;" edge="1" parent="1" source="U0BUh_aV6mO99cxN8OCH-22" target="aUKGI_wqsEK1M9Z13f95-11">
          <mxGeometry relative="1" as="geometry" />
        </mxCell>
        <mxCell id="FkthiYPeSRhGyDQ8fWFa-3" style="edgeStyle=orthogonalEdgeStyle;rounded=0;orthogonalLoop=1;jettySize=auto;html=1;exitX=0.5;exitY=1;exitDx=0;exitDy=0;entryX=0.5;entryY=0;entryDx=0;entryDy=0;strokeColor=default;align=center;verticalAlign=middle;fontFamily=Helvetica;fontSize=11;fontColor=default;labelBackgroundColor=default;endArrow=none;endFill=0;" edge="1" parent="1" source="U0BUh_aV6mO99cxN8OCH-22" target="pd6t9ht38WgvGKXgcOnb-24">
          <mxGeometry relative="1" as="geometry">
            <mxPoint x="1017.75" y="489.0000000000002" as="targetPoint" />
          </mxGeometry>
        </mxCell>
        <mxCell id="FkthiYPeSRhGyDQ8fWFa-5" style="edgeStyle=orthogonalEdgeStyle;rounded=0;orthogonalLoop=1;jettySize=auto;html=1;exitX=0.5;exitY=1;exitDx=0;exitDy=0;entryX=0.5;entryY=0;entryDx=0;entryDy=0;strokeColor=default;align=center;verticalAlign=middle;fontFamily=Helvetica;fontSize=11;fontColor=default;labelBackgroundColor=default;endArrow=none;endFill=0;" edge="1" parent="1" source="U0BUh_aV6mO99cxN8OCH-22" target="ijKMyixCJjlSJLWHBlUi-120">
          <mxGeometry relative="1" as="geometry" />
        </mxCell>
        <mxCell id="FkthiYPeSRhGyDQ8fWFa-6" style="edgeStyle=orthogonalEdgeStyle;rounded=0;orthogonalLoop=1;jettySize=auto;html=1;exitX=0.5;exitY=1;exitDx=0;exitDy=0;entryX=0.5;entryY=0;entryDx=0;entryDy=0;strokeColor=default;align=center;verticalAlign=middle;fontFamily=Helvetica;fontSize=11;fontColor=default;labelBackgroundColor=default;endArrow=none;endFill=0;" edge="1" parent="1" source="U0BUh_aV6mO99cxN8OCH-22" target="ijKMyixCJjlSJLWHBlUi-124">
          <mxGeometry relative="1" as="geometry" />
        </mxCell>
        <mxCell id="FkthiYPeSRhGyDQ8fWFa-7" style="edgeStyle=orthogonalEdgeStyle;rounded=0;orthogonalLoop=1;jettySize=auto;html=1;exitX=0.5;exitY=1;exitDx=0;exitDy=0;entryX=0.5;entryY=0;entryDx=0;entryDy=0;strokeColor=default;align=center;verticalAlign=middle;fontFamily=Helvetica;fontSize=11;fontColor=default;labelBackgroundColor=default;endArrow=none;endFill=0;" edge="1" parent="1" source="U0BUh_aV6mO99cxN8OCH-22" target="ijKMyixCJjlSJLWHBlUi-122">
          <mxGeometry relative="1" as="geometry" />
        </mxCell>
        <mxCell id="U0BUh_aV6mO99cxN8OCH-22" value="" style="strokeColor=#dddddd;shadow=1;strokeWidth=1;rounded=0;absoluteArcSize=1;arcSize=2;" vertex="1" parent="1">
          <mxGeometry x="420.75" y="347" width="160" height="60" as="geometry" />
        </mxCell>
        <mxCell id="U0BUh_aV6mO99cxN8OCH-23" value="&lt;div&gt;go1-internal&lt;/div&gt;&lt;div&gt;192.168.123.0/24&lt;br&gt;&lt;/div&gt;" style="editableCssRules=.*;html=1;fontColor=#999999;shape=image;verticalLabelPosition=middle;verticalAlign=middle;labelPosition=right;align=left;spacingLeft=20;part=1;points=[];imageAspect=0;image=data:image/svg+xml,PHN2ZyB4bWxucz0iaHR0cDovL3d3dy53My5vcmcvMjAwMC9zdmciIHhtbG5zOnY9Imh0dHBzOi8vdmVjdGEuaW8vbmFubyIgd2lkdGg9IjIwIiBoZWlnaHQ9IjIwIiB2aWV3Qm94PSIwIDAgMjAgMjAiPiYjeGE7CTxzdHlsZSB0eXBlPSJ0ZXh0L2NzcyI+JiN4YTsJLnN0MHtmaWxsOiM0Mjg1ZjQ7fSYjeGE7CS5zdDF7ZmlsbDojNjY5ZGY2O30mI3hhOwkuc3Qye2ZpbGw6I2FlY2JmYTt9JiN4YTsJPC9zdHlsZT4mI3hhOwk8cGF0aCBjbGFzcz0ic3QxIiBkPSJNMTMuMTMgNS42M1YzLjIxTDEwIDB2Mi40MXptMy43NSA3LjVMMjAgMTBoLTIuNWwtMy4xMiAzLjEzem0tMTMuNzUgMEwwIDEwaDIuNWwzLjEzIDMuMTN6bTEwIDEuMjV2Mi40MUwxMCAyMHYtMi40MXoiIGZpbGwtcnVsZT0iZXZlbm9kZCIvPiYjeGE7CTxwYXRoIGNsYXNzPSJzdDIiIGQ9Ik02Ljg4IDUuNjNMMTAgMi40MVYwTDYuODggMy4yMXpNMTcuNSAxMEgyMGwtMy4xMi0zLjEyaC0yLjV6bS0xNSAwSDBsMy4xMy0zLjEyaDIuNXptNC4zOCA0LjM4TDEwIDE3LjU5VjIwbC0zLjEyLTMuMjF6bTAtNy41aDYuMjV2Ni4yNUg2Ljg4eiIgZmlsbC1ydWxlPSJldmVub2RkIi8+JiN4YTsJPHBhdGggY2xhc3M9InN0MSIgZD0iTTYuODggMTMuMTNsNi4yNS02LjI1djYuMjV6IiBmaWxsLXJ1bGU9ImV2ZW5vZGQiLz4mI3hhOwk8cGF0aCBjbGFzcz0ic3QwIiBkPSJNMTAgMTBsMy4xMy0zLjEydjYuMjV6IiBmaWxsLXJ1bGU9ImV2ZW5vZGQiLz4mI3hhOzwvc3ZnPg==;rounded=0;" vertex="1" parent="U0BUh_aV6mO99cxN8OCH-22">
          <mxGeometry width="30" height="28" relative="1" as="geometry">
            <mxPoint x="15" y="16" as="offset" />
          </mxGeometry>
        </mxCell>
        <mxCell id="aUKGI_wqsEK1M9Z13f95-11" value="&lt;div&gt;go1-body2&lt;/div&gt;&lt;div&gt;&lt;br&gt;&lt;/div&gt;&lt;div&gt;192.168.123.15&lt;/div&gt;" style="strokeColor=#dddddd;shadow=1;strokeWidth=1;rounded=0;absoluteArcSize=1;arcSize=2;labelPosition=center;verticalLabelPosition=middle;align=center;verticalAlign=bottom;spacingLeft=0;fontColor=#999999;fontSize=12;whiteSpace=wrap;spacingBottom=2;html=1;" vertex="1" parent="1">
          <mxGeometry x="862.75" y="489" width="87.25" height="110" as="geometry" />
        </mxCell>
        <mxCell id="aUKGI_wqsEK1M9Z13f95-12" value="" style="dashed=0;connectable=0;html=1;fillColor=#757575;strokeColor=none;shape=mxgraph.gcp2.desktop;part=1;rounded=0;" vertex="1" parent="aUKGI_wqsEK1M9Z13f95-11">
          <mxGeometry x="0.5" width="50" height="45" relative="1" as="geometry">
            <mxPoint x="-25" y="12.5" as="offset" />
          </mxGeometry>
        </mxCell>
        <mxCell id="aUKGI_wqsEK1M9Z13f95-34" value="&amp;nbsp;" style="text;whiteSpace=wrap;html=1;rounded=0;" vertex="1" parent="1">
          <mxGeometry x="-240" y="150" width="40" height="40" as="geometry" />
        </mxCell>
        <mxCell id="aUKGI_wqsEK1M9Z13f95-40" value="&lt;div&gt;Linus Laptop Lenovo&lt;br&gt;&lt;/div&gt;&lt;div&gt;192.168.0.x&lt;/div&gt;" style="strokeColor=#dddddd;shadow=1;strokeWidth=1;rounded=0;absoluteArcSize=1;arcSize=2;labelPosition=center;verticalLabelPosition=middle;align=center;verticalAlign=bottom;spacingLeft=0;fontColor=#999999;fontSize=12;whiteSpace=wrap;spacingBottom=2;html=1;" vertex="1" parent="1">
          <mxGeometry x="323" y="145" width="70" height="110" as="geometry" />
        </mxCell>
        <mxCell id="aUKGI_wqsEK1M9Z13f95-41" value="" style="dashed=0;connectable=0;html=1;fillColor=#757575;strokeColor=none;shape=mxgraph.gcp2.desktop_and_mobile;part=1;rounded=0;" vertex="1" parent="aUKGI_wqsEK1M9Z13f95-40">
          <mxGeometry x="0.5" width="50" height="33" relative="1" as="geometry">
            <mxPoint x="-25" y="18.5" as="offset" />
          </mxGeometry>
        </mxCell>
        <mxCell id="ijKMyixCJjlSJLWHBlUi-6" value="&lt;font color=&quot;#2d7db3&quot;&gt;&lt;b&gt;Containers&lt;br&gt;&lt;/b&gt;&lt;/font&gt;" style="fillColor=#F6F6F6;strokeColor=none;shadow=0;gradientColor=none;fontSize=14;align=left;spacing=10;fontColor=#bf4040;9E9E9E;verticalAlign=top;spacingTop=-4;fontStyle=0;spacingLeft=40;html=1;whiteSpace=wrap;rounded=0;movable=1;resizable=1;rotatable=1;deletable=1;editable=1;locked=0;connectable=1;container=0;" vertex="1" parent="1">
          <mxGeometry x="-1140" y="317.5" width="490" height="510" as="geometry" />
        </mxCell>
        <mxCell id="ijKMyixCJjlSJLWHBlUi-120" value="&lt;div&gt;go1-body1&lt;/div&gt;&lt;div&gt;&lt;br&gt;&lt;/div&gt;192.168.123.14" style="strokeColor=#dddddd;shadow=1;strokeWidth=1;rounded=0;absoluteArcSize=1;arcSize=2;labelPosition=center;verticalLabelPosition=middle;align=center;verticalAlign=bottom;spacingLeft=0;fontColor=#999999;fontSize=12;whiteSpace=wrap;spacingBottom=2;html=1;" vertex="1" parent="1">
          <mxGeometry x="739.75" y="489" width="90.25" height="110" as="geometry" />
        </mxCell>
        <mxCell id="ijKMyixCJjlSJLWHBlUi-121" value="" style="dashed=0;connectable=0;html=1;fillColor=#757575;strokeColor=none;shape=mxgraph.gcp2.desktop;part=1;rounded=0;" vertex="1" parent="ijKMyixCJjlSJLWHBlUi-120">
          <mxGeometry x="0.5" width="50" height="45" relative="1" as="geometry">
            <mxPoint x="-25" y="12.5" as="offset" />
          </mxGeometry>
        </mxCell>
        <mxCell id="ijKMyixCJjlSJLWHBlUi-122" value="&lt;div&gt;go1-pi&lt;/div&gt;&lt;div&gt;192.168.123.161&lt;/div&gt;&lt;div&gt;192.168.12.1&lt;br&gt;&lt;/div&gt;" style="strokeColor=#dddddd;shadow=1;strokeWidth=1;rounded=0;absoluteArcSize=1;arcSize=2;labelPosition=center;verticalLabelPosition=middle;align=center;verticalAlign=bottom;spacingLeft=0;fontColor=#999999;fontSize=12;whiteSpace=wrap;spacingBottom=2;html=1;" vertex="1" parent="1">
          <mxGeometry x="492.75" y="489" width="87.25" height="110" as="geometry" />
        </mxCell>
        <mxCell id="ijKMyixCJjlSJLWHBlUi-123" value="" style="dashed=0;connectable=0;html=1;fillColor=#757575;strokeColor=none;shape=mxgraph.gcp2.desktop;part=1;rounded=0;" vertex="1" parent="ijKMyixCJjlSJLWHBlUi-122">
          <mxGeometry x="0.5" width="50" height="45" relative="1" as="geometry">
            <mxPoint x="-25" y="12.5" as="offset" />
          </mxGeometry>
        </mxCell>
        <mxCell id="ijKMyixCJjlSJLWHBlUi-124" value="&lt;div&gt;go1-head&lt;/div&gt;&lt;div&gt;&lt;br&gt;&lt;/div&gt;&lt;div&gt;192.168.123.13&lt;br&gt;&lt;/div&gt;" style="strokeColor=#dddddd;shadow=1;strokeWidth=1;rounded=0;absoluteArcSize=1;arcSize=2;labelPosition=center;verticalLabelPosition=middle;align=center;verticalAlign=bottom;spacingLeft=0;fontColor=#999999;fontSize=12;whiteSpace=wrap;spacingBottom=2;html=1;" vertex="1" parent="1">
          <mxGeometry x="612.75" y="489" width="87.25" height="110" as="geometry" />
        </mxCell>
        <mxCell id="ijKMyixCJjlSJLWHBlUi-125" value="" style="dashed=0;connectable=0;html=1;fillColor=#757575;strokeColor=none;shape=mxgraph.gcp2.desktop;part=1;rounded=0;" vertex="1" parent="ijKMyixCJjlSJLWHBlUi-124">
          <mxGeometry x="0.5" width="50" height="45" relative="1" as="geometry">
            <mxPoint x="-25" y="12.5" as="offset" />
          </mxGeometry>
        </mxCell>
        <mxCell id="6A_LMK3GcHGA9ymQ-XDU-57" value="" style="group" connectable="0" vertex="1" parent="1">
          <mxGeometry x="-1169" y="10" width="2329" height="40.68" as="geometry" />
        </mxCell>
        <mxCell id="U0BUh_aV6mO99cxN8OCH-1" value="&lt;div align=&quot;center&quot;&gt;Architecture: Unitree GO1 Network&lt;/div&gt;" style="fillColor=#4DA1F5;strokeColor=none;shadow=1;gradientColor=none;fontSize=14;align=center;spacingLeft=50;fontColor=#ffffff;whiteSpace=wrap;html=1;rounded=0;" vertex="1" parent="6A_LMK3GcHGA9ymQ-XDU-57">
          <mxGeometry x="10" width="2319" height="40" as="geometry" />
        </mxCell>
        <mxCell id="6-odhWknWzznOaxpr7or-2" value="" style="shape=image;verticalLabelPosition=bottom;labelBackgroundColor=default;verticalAlign=top;aspect=fixed;imageAspect=0;image=data:image/png,iVBORw0KGgoAAAANSUhEUgAAAwEAAADtCAYAAADncXlxAAAACXBIWXMAAC4jAAAuIwF4pT92AAAgAElEQVR4nO3d63XbxhqF4Z2s/CdPBUIqkFKB4AqsVCC4AssVmK7AcgWCKohcgaEKIlUQqoJDVpDz4+McQjIp8YLB3N5nLS47TgKMKXIwe66//Pvvv0ISppLOev9cv/HvXzNfvfq6Lb8HAIRTrV592+r7haSHF38218/1PQDoF0JANKrV60zrCt79OglUpketHyoLWTjY9JABAOyv3vKrr3r/SRYIXD0+X71cHQ+gIISAMGpZJX8ma/ifhyzMgR61fnh04iECANv06/t69etJuOJstJTV4y9fADJFCPDvTM8b/adBS+PXk9aBwP0KACWp9LzeT7GTx3HBoOu9AGSCEDA8V/m7V6ipPDFY6vnDg1AAIDdTSRda1/mx9fAP7V5Wn9+p3Dr9WruvwctRHboAGAYh4HhT2RfCPQRyfwAcw40U3Gm9vgAAUnMmqZHV+TmP7r5lqXV9fqdy6vROaY/wHOuX0AXAMAgBh3E9PxeS3gcuS8q+yx4cJT08+s5kPUoY3rYF7F3v96xjwT5cw/9CdPZsU0qd3okQgAwQAnZHw9+vUh4efbWkH6ELAUk2xUFaB4P+jlgoVyVr+Dei4b8vV6e3gcvhQydCADJACHiba/hfhi5IQXJ+ePTVIgSkoL9rylzrhZLI14Ws4U+Hz/HclKFr5bOGoBMhABkgBGxWid6fGCxlQeBaeR52U4sQkLJHrcNBp3waOKVyo70zUe/78iirz1Mf8e1ECEAGCAHP1bKGP73+8bmXBYI2bDEGVYsQkBN2w0rTVNLV6lXybm5jWsrCQKs0O3g6bQ4Bt0rz77PN5y1/TgjIBCHANKtXyck+FU9aPzxS7kmSCAG5c9Mg2A0rTjT+43ArG32Zhy3GXjptbi+8U15TBbc1EAkBmfg1dAECa2QVz40IAKk4kfRV9nObyR7kQIwmslHFvyT9VxYGGvGZjUEjq0M+iwAQ2qWkf2QdO1XQkgCFKTUENFo3/pn7maaJ7AE+F2EAaXgvq3PmsgZPHbAspapl07RuROM/NoQBYGSlhYBGNP5zQxhAatwIwQ/Z5/ZKfG59m8oalz9U9uFeKXBh4Fp8LwCvSgkBF6LxnzsXBh5kYQ9IQX9627XoAfWhkb2/bPiQlo9ah2QAHuQeAs5ki3T+Eo3/UpzIwt6DmG6BdExkjR6mQwxnKluHwdSfdE1kIZn6HPAg1xDghn7/Fgt+S3UqG/pnSBmp6c+N5rN7GDf6y2FfeaA+BzzIMQQ0YugXa25I+SJwOYB9XYq1Loe4lo3+0vufn49iVAAYTE4hoJJN/WHoFy9NZI2CO9GYQlr6a10Isq+byt6nj6ELAq9OxKgAMIhcQsCVrPJn6g9e8170IiFNJyLIvuZMNmrCzj/lcKMCZ6ELAqQq9RBQyXr/v4ref+zG9SLNApcDOMR7Mb3tpQvZc4BnQHlOZGv/2EEIOEDKIaARvf843GdZw4FeVaTGTW9rxee3EfP/YR2BuY6Snck6rTpZm+ff1Wux+rNr0SmAA6UYAtj2DUM5F8PJSNelrBFQ6ue3kT0HAMlGyTrl8324kD2f/pZ1Wp3r+XS3yerPPsqC8EJsIoA9pRYCzmRfCrZ9w1BOZA+OJmwxgIOcyj6/pfUENiIA4Gc5fB8qrc832meNi9tEYK60//4YUUohoJF9MTj0C0ObyBoUzCtFitz0oFI+v40IANjOfR+awOU4hOvoPGaac3+6IPCqVELAtZj+A/++iooT6Srh89uIAIDd3Cit70Mtm/ozVDvnUmn9/RFA7CFgKuv9Z99njIWKEynL+fN7JgIA9pPK9+FMttZxaJdiJzy8IuYQcCYLAOz+g7Gl8uAANsnx8+ueB8C+LhX/HPlW/mY6fBZn42CLWEOAq/A5+AWh5NiQQjly+vxO5beRhLx9kJ9e9qHM5L+t03q+PhIVYwjg4BfEIqeGFMqTy1SAVnQI4TAfFHcdPtU4C/pPlOZCaXgWWwhoxMEviAtBACn7rLQf/ldiS2gc5pPir7svNF57p5Tdw7CHmEJAIxZ9IU6Xsh2qgBTdKM0DlM5kOx4B+7pVGnV2M+K9TmVnEAD/F0sIaEQAQNwacRIj0tUprc+vOxke2Net0hn9Gnvjk3rk+yFyMYSARgQAxG0pqzwXgcsBHGqitBrVM3EwJPaXUgCoA9wzxRFBeBQ6BDQiACBuLgA8BC4HcKxzpbFQuBZnw2B/90onAIRCCMAzIUNAIwIA4kYAQG4+K/6GQApzuRGXR8V/FsBLKU3PQ6ZChYBGBADEjQCAXLWhC/CKK7EdKPbzKKZrAgcJEQLORE8P4kYAQM5OFed2gVOlMV0J8Ug5AKRYZmRm7BDgTgLmHADEigCAEswU33SEa/FswO6WsilAqTamQ5Sb5xqeGTMEcPQ7YkcAQCkmimtEtpKdxwHswtXV87DFOEqI5wzPNjwzZgi4E3M9ES8CAEpzqXgWCc9CFwDJyKmu/j7y/bqR74fIjRUCrjX+oRjArnJ6qAD7iGE0oBKjANhNbnX1mGd33CvtkRN4MEYIaMSez4hbo3weKsA+zhX+FNEYFykjTlfKq65uZcFmrHsBz/gOAewEhNh9UFonqQJDC9kIn4oDnrCbD8qzITsb4R6PyvO9w5F+83htFgIjdrk+VIB9vJdNyZkHuPeFeEbs4lHr3WS6V/67M9mzt5J04rdIo8q5rr6WBWGfayYbj9dGwnyGgGuxEBjxyvmhAuxrpjANBaYCPfcoa+TPZdNeHnTcVpK1LBDUsoCQ4jP5k/Kvqy9kP2sfgfiT8ppChQH5CgEXYqEX4kUAAJ67kPUgj7l3eaU0G6VD+y6bknin4d//bvVru/q1kgWCC9kIUOxuVcaU4rns59Jp2CBQyvuHA/lYE1CJBhbiRQAAfjaRNQzHNPb9YrKU9EXSf2TvQ6txAth8da+L1b0/aPxtKnd1q7KmsTzIgsDTQNf7pLLePxzAx0hAK+Z4hnT/4p/nWs/1nernfcFL2rqVAABs5xqjY2lGvFcslrKe2WuFP+l2Ift5t7LOu0Y2PSuG53dpAcB5kD2jWx0+UvMke++6QUqErP3y77//Dnm9K0lfh7wgNrrXeq5ot/r12Dl/bkFZLXsgpDp/dJsYA0At6UfoQnhwq/Hf67r3+2r1ksoKuUP4j8ZpnE4l/XeE+8Tku+wZOQ9cjrc0sjUioRYW3yv8trVv6bS5bnmn4RrftezzsmsYeJL93NqB7i9J2xqIvwx4DwQ05EhAJU599GEpq1Tcy9cCH3fd7sWf171Xqg2qGANAzuYavxfqrfvVWo+E1Ur3s+zbWKMBpU0F+qR05ma3q1ej8cPAo8r7bGzTrV6V1s/g6sV/4zoA78TiXxxgyBBwrTiGEXPwpPVCsS5sUf5fEUnrkYILpbO1HwEA0voz3D8Totb6s5zTdorHGCsE1CPcIwYpn3Dbah0Gxni+P8req9DTpGIz1/pnAQxqqIXBqew0ELOlbBrFO1nav1L4APDSQtaIamSB4E9ZmWNFAMBrOtn3rJL0h+yzPNbpnbGqM7tPSCkHgL5W9h355vEeBAAggCFCwFTpDHPG6Ek2VFwpvcU8LhD8R/Z3GGpXgyEQALCPB9lnuZLt2lJqGJjIfwN9qvxHXnIJAM5CFpj/kDXYh+TeKwIAMLIhQsCV8q/QfbiXNVQrxbFTxDEWsr9DJRsdeLlD0dgIADjUQjYPupLfns+Y1YlfPwaN8gkAfW73mqG+GwQAIKBj1wRUkj4PUI6S5L59l1vLUMsaU2MvwCQAYAiu5/NO9nkqqaPj5TbCqV0/tC96vvYkR266aqvD1wrkNlqC9NQqo1Nim/bYEDAbohSF8LF9V8w62Zer0Xg7TBAAMLRO1mi9Uzk7CtWer59zCHhUOc9F19nTav/tpAkAiEGtsjuyu2OmA9WSLgcqSO6+aH0ASGlaDTt8vA0BAL4sZPVdzIvghzTRz1sRDsnntUO7Cl2AkblTbvddJ9CIAAAEd0wImA1ViIw9yhZSzVT2nEc3teKd/CweJgBgDI3KCQKVx2vndAhh373yneb5moWso2fX78YH5T9dCkjCoSGgVjlD44dyvf/0dqx1svfk+4DX/CICAMZzpeF3R4lR7em6lafrxqANXYDAGr0dBOiwASJyaAiYDVmIzDxp3fuPny1k50p8GuBat+J9xrjc5zf3LUSrxK4bA3q3Xw8CBAAgMocsDK7FKMA232WVYMlTf3Z1rfVJiIfsLnEre6+Bsc1lIwI3gcvhU+XpulNP1w3tXtT7TiMb8e1P+7oVAQDpyG1qX6Mtm7McEgJmx5QkY1/Ee7Mvt7tEp/2CAAEAobWyz2CuHSK+dvDJdWcgpn0+V8vq9VOVVV83KnvLyVx0yqs9V2ugEFAr34feMRjmPJzbXaLTbkGgpAcK4jaT9CN0ITw5dO/3Us1DFyAyC1k93aisHZPYMRFJ2XdNwMxHIRK2lM3/bwOXI3UuCLw1z5oAgJh0ynuRcBW6AAlhJOBnDyorAADJ2ScEnIlRgD4OOxmWCwLbEAAQozZ0ATyqPFyz9nBNAMAB9gkBJPo1AoAfD7KpVS8RABArdoQBACRp1xAwFXPdHAKAX62eny5MAEDM5sp3SlCui3gBANp9YTCjAGu1CAC+XWn9PjdBSwK87UF5noKb63aewLFajb+FZKPNO7zcioXpONCuIaDxWYiEfBABYCy12HcbaXgQI6VASdoA96y1OQS0ymtPe4xol+lAF9qyv2hhvijvRYCxIQAgFXQMoA5dAADY1y4hoPFdiATciu1RAWxGYEUVugAAsK+3QkAl6f0I5YjZo1gTAWA7RgJQhy4AAOzrrTUBF6OUIl5L2UgIPX0AgG1OZLspEQgBbDKVtalrWQf7mexk9ifZwu65bG3HnUZsc741EtCMUYiIzUSlDgB4GyPGAF6qZOtJ/yvpRraJxLksAEjWgXC++vOb1X/XaqQphq+FgEp5bnu3q3tJ16ELAQAZ6UIXwKNLsTYAgJnK2pD/aP/d4y5X/99s4DL95LUQUPJUIDcNCACAXdFxBGAq6/D4eOR1Pq+u4+3MltdCQOPrpgmYicM3AOyGQ7XgvFfZz06gdC4ADDWT5lweg8C2EFCp3KlAj6I3B8DuzkIXICElrLG6Fp8JoERDBwDnVLZgeHDbQkDJU4FY3AVgH4wE7K6EndYmsoYAQQAoy0z+OtDP5WGNwLYQUA99o0R8V94L1wAMj8be7uahCzASggBQllrHrwF4y2cNvPnAthBQ6gFhjAIA2FeuDb15IteM1UTS3+K5ApRgluJ9NoWAUqcC3aqsBxSAYdShC+DJ3NN1Hz1dN1ZfZfN5q8DlAOBHJZuuM4ZLDTgFdVMIqIe6eGJmoQsAIDnu1Efsbh66AAG8ly2KZlQAyM/YneeD3e+3DX9WD3XxhDAKAOAQTegCeORrJ58HlTnldCIbFbiSdTq1IQuDbDQqs902hHqg64wdAmoNVH+8DAFTlbk16Cx0AQAkZ6q8Q4CvnXw62QK3Up1IupF9dloRBnCcfU+jxfDGmgrkDLYO7eV0oFwXuL3mXowCANjfhfKdCvTk8dolnBWwi3NZGJgr7zAJYFiDdda/DAH1UBdOCAeDAdjXVHnXHXOP116ovMXBr3EjAwvZZ6oKWhoA+6hCF+AYpYeAJ3k6hQ1A1mbKdxRA8t9b33m+foomsn3G/5G9/404iA6AR6VPB2pDFwBAcmr5PxQmtLnn63eer5+6U9nowH9lz6lSt+4GYjcPXYBj9BcGV8q7Z2uTNnQBACRlqjJGD32PBNxJWqq8Z84hLlevpex9uxbrKkrEz3x4lWw6XmoGm07ZDwGljQI8KvEEB2BUU1kPdgkN1zEaHHdiZ5N9TLQOBG4qaysah6XgjInhzTTMTmX3GneHoMG+8/3pQKWFgDZ0AQAkwwWAErZQfpS/7UH7ShhR8eVENiXtb1ln1rXKe4YDsRi7LuuGulA/BNRDXTQRPIAA7KJSOQFAGq9n2U0JwnEIBEBYY7Yn3bTAQfRDQDXURRPAVCAAu6hljeJSAoA07qLddsR7lYBAAIxvLpsSNIY7DThS2w8BKS6OOFQXugAAoubOAfihMtYA9HUj3ivnsxZC6weCB9mc8ipkgYCMjbFmYylbxzAYFwJK6ylgKhCAbRpZz07u24Bu8qRxR0nnkm5HvF+pTiV9FWcQAL48SPrm+R4zDVw/uxBQWmXQhS4AgOg0sgr2RuX1/jshOkhmAe5Zsv4ZBHeyzz2A483k7zT07/IwcupCQD30hSM21rwtAPGrZBXrQtYwKmla5CZdgHvOxWhAKO9ln/uFbH1GHbIwQOIWsu/Q0EHgUZ7C+ssTg0vQhS4AgKDOZD02D7LpER9Vbs9/36C7TuxpFui+MO4Mgh+yUDYT6weAQwwdBL6vrudl2+YSRwI4WAUoRyXpQtao6WQV6d+yA2JK2vFnFyHXSs3FaEAsTmTfj39k35lG5U0ZBo6xkHU2fTniGktJn2TPL2/ntvz29n+SHUIA4Fel8TsW3P2mssp3Khr5+wq9U8+V7IHHqEw8zlevG1lIa8VoOrCrmew7M9Pup6O7EdmZRtikwYWAUnYHWorzAQDfLrV7hYc4PCl8B8lC9uD7Grgc2Mx9r59kgbHVOCdLAymby0bTXCfHmTa3uR9kAXvUEVkXAkrpeQn9kAOAGM1CF2DlWvbAZBQnXieyoDbTiD2WQOLc4vuolLYweB66AAAQmZALgjdpQhcAO3GLif+RNW5KmVEAZONXlbUoeB66AAAQGbdFaiwedNyCOozvUrbgvhO7CgHJKG0kgOlAALC2VPgFwZvMxJkuKTrXemSgCloSAG8qLQTE1NsFAKHFNgrQdyELKUiPmyY0E9uLAtH6VWWldUYCAMDEOgrgLGRBAOn6rPXuKAAiU1oIiLXHCwDGdqX468RO0ofQhcBRJrJzBjqV1d4AolfadCAAgB1p34YuxI5aSd9CFwJHO5eNxl+FLggAU1IIeAxdAACIRGoNsSvZibVI20R2xkAnRgWA4EoKAbEPewPAGL7JGmGpaUQQyIUbFWDNBxBQSSEAAEr3pHhOBz5EI4JALiaS/lI609KA7PwWugAAgNE0Sn9UtFn9ehmyEBjMpey04QtxoCfiUCvtzpKXqm3/ghAAAGX4ojSnAW3SyKaTfA1cDgzjVPbzrMVW3gjvfPXKHtOBACB/98qrZ0uyMw4+iAPFcjGRhdQmbDGAchACACBvT8p3AWYr6z1+ClsMDMSdKdAELgdQBEIAAORrKQsAqa8DeM2DbE7599AFwWAIAsAICAEAkK9GZcyxXsjCzqfQBcFgCAKAZywMBoA8fZB0F7oQI7uWzStvZYtNkbab1a9tyEIgW12AezaSTjb8+b3GL8+cEAAA+fmgchtObnrQTNLnsEXBAAgC8KXT+A3vWptDQKcAmzcwHQgA8lJyAOibSfpd1sOGtN3Igh2AAZUUAqhAAOSOAPDcXNbz9qfYQSh1nV459AjA/koKAZPQBQAAjwgA293JGpCfxLkCqZrIfo7T0AUBcvGr8t46DgByt5T0hwgAu7iWhYEvIgyk6FT2MwQwgF9VxvZxDlOCAOTkUVavlVSPH2shWy9QyUZPmCaUlktJV6ELAeSgpOlAEsOIAPJxK5vvPg9bjGQtZKMnlSwMsIA4HTPRqQccrbQQUIUuAAAcaSlrtDZiOudQWlmgeicLV4jbREx/A45W2nSgKnQBAOAI97Ie0DZwOXLVycLV77J1A0wVitepAuyrDuSktIXBDB8CSNFStrNNLab/jGGu9bqBPyV9D1gWbPdZdO4BB2M6EADE7VZWd7ErShh3ki7E6ECs2tAFAFLlQkApC6JOQxcAAHZ0L5uj3qisEdtYzbUeHXBrB9hmNLxzWUgDsKfSRgIkpgQBiNuTbOFvLZujjvh0snA2FdOFYsAoGXAAFwJKWhxMCAAQI9f4r8QUh5S46UL/kf38GCEY34kslAHYgwsBJQ01EwIAxORRNP5z4M4daLQeISAQjGcWugBAakocCahDFwAAZA3Ed2LLz1zdiUAwJkYDgD2VOBJwKk4OBhDGk2yHmd9lDZYuZGEwGgLBOK5CFwBIiQsBXchCBFCHLgCAYiy17vWvZNMW5uGKg8AIBP6ciim/wM76uwOVtPcx24kB8OlJ1rj7U9bYa1ReZwveRiAYXhO6AEAqfuv9fi6bU1eCOnQBAGTnXtao61TWOisM4271kqyjyr0mwUqUpgsxLQjYST8EdLJDN0pwIhsy5EEN4BBLWf3R9V7AUFwgmGodBt4HLVE6eL4DO3o5ElCSRvQWANjNvaxR0X8BvrltR1vZepJm9Spl1P5QjXi+A2/qh4DSHmoMGQLoe5J1hrhX1/s9ENpctqh8pnUj9zRYaeJWhy4AkIKSQwBDhkAZXOPe6Va/zlevhagHkJZ29aploaCUqby7cluBl7T9ObC33178873KqkwaMRoADO1W4Q6/6gLdFwihkwWBWoSBl2qtF1oD2OBlCOhUViXSiBAADG0uGuPAmDpZo/dC0rVYMyDZSD8hAHjFry/+ubQh8YnYUxgAkIc72QLiL4HLEYM6dAGA2L0MAV2IQgTWhC4AAAADmkn6Q9Jj4HKEVIUuABC7lyFgofIqjXPRYwAAyMuDbErMt9AFCYQpUcAbXoYAidEAAABycSXpQ+hCBFKHLgAQM0KAuRRDhwCAPLWy6UHLwOUAEBFCwNosdAEAAPDkQdYzXlIQqEMXAIjZphCwkJ0XUBpGAwAAOXNBAAA2hgCp3L11r0MXAAAAjx5UzhqBaegCADEjBDz3XvSSAADy1spO9s7dWegCADHbFgLmkp5GLEdMGA0AAOTuSuU+5wFoewiQyh0NOJVVjgAA5GohNsQAivZaCGjHKkSEZmKRMAAgb60YDQCK9VoIeFC5lcNEZYcgAEAZSh31B4r3WgiQyp4ffy6mBQEA8taGLgCAMN4KAaX3EMzE7gIAgHw9qKwDxACsvBUC5irz4DDHTQtir2EAQK4eQhcAwPjeCgESQ4WnKntaVEhXstEoQhgA+EMIAAq0awgofajwUqwPGNuZpK+yA9w6EQQAwJdF6AIAGN8uIUBiNECyBmkTuhCFmOr5epRTEQQAAAAGs2sIYDqMuRYLhcfQSTp58WcEAQBvoX4AgB39tuN/N5f0XTY1o2QTWUO0FnMofWllDf5NXBCoxfA1gOcaWUdNLepnGD4Hx5mFLkBgs9AF8G3XECBZ5Vp6CJAIAj61svUXr3FB4EIWTgGgkXSz+v2dbMSWjgLwGTjO59AFCGwWugC+7TodSLKG16OncqTGBQGmBg2n1dsBwDmVBTDefwCN1gFAsqmEnZgaBACv2icESKwN6OuPCOA4rXYPAA5BDECj5wHAYQ3RfurQBfCE0XrgFfuGgFbSk4dypGoi6YfYNegYrfYPAA5BAChXo80BwCEI7K4KXQBPmA4EvGLfECAVMEfqADdilGRfU9kD+tAA4BAEgPJc6PUA4BAE3jbVz7ux5WIeugBAzPZZGOy0siCQa6VxqI+yhuiF6H14y5le3wVoXyzWBsrh6o9dsavY6+rQBfBoHroAmboPXYABTTVcWyQ5h4QAyULALr0wpTmXVToXsocOftbIRk0mA1/XBYErcbgdkKsz2fd83/rDBYFGdBS8dBG6AJ6wkYk/degCDKiWTesu0iHTgSTWBrzGrRO4FkPQfVPZ5+ZGwwcAZ7K6fuPp+gDCOTQAOP0RAazlGgLmoQsAxO7QECCxNuAtH2U9TnXgcsSglr0Xx87/3xVBAMjLsQHAcZ00V8cWKBON/HXKhMaID/CGY0JAq7zmhflwInvg3Cnf3Rde43r/f2j8NSQEASAPQwWAvq+yern00dpZ6AJ4RAgA3nBMCJDyrkCG9F7SP7L3q5SHzpVsOHas3v9NCAJA2nwEAOe9rI6qPVw7BVfKe4MPQgDwhmNDQCfp+wDlKMVn2UNnpnzDQCP7O35VHMPMNyKsAinyGQCcUtdwVcq7XlyKNQHAm44NAZL1JiwHuE4pJlqHgWvlM02okf2dbhRf79JnsWMQkJJK/gNAn1vDlesi2ZdaxdFJ40sXugBACoYIAXNxUNYhJrIHzz+yuakpPnymst6kueJs/PddiiAApGAqqxPHbqSeSPpL1oCsRr73mK5l21nnrAtdACAFQ4QAyRqCbBl6uPeyh89CVkHHfPrtVNbrfyfpv7Je9pgb/30EASBu7iTxkIf3nMs6Z3KcItTIOp9y14UuAJCCoUKAxALMIbjRgb9lgaCVva9VsBKZSjbtyzX8b2TBJUUEASBOMQSAvo/Kaw3XTGUc8vkkFgUDOzn0xOBNOkm3CrsbTE4msvfSvZ9Psvf4ofdaeLhvtXrVshGJWvnNHXXv6ZX8vIcA9hNbAHDcGq4r2cjAtdKrM6aycpfybO5CFwBIxZAhQLKK8kL5NRpjcKLnoUCyBdkuDLiej/7vX1Nv+H3u80T7LrUOOak91IGcxBoA+vphoJU1qucBy7OrWlbeVKZsDuEudAFwkKnWnY9nWo++uTbNg6ye4Hk9oKFDwEI2feWvga+LzSZaN9xTnZ4T0qmsUqlFxQKEkEIA6HNTNj/KtsduFWejs5IFldKeC0vF+fPAdrWs3fjaSFX/c3wr+951vgpUkiHXBDh3kr55uC7ggwsCOcz5BVKSWgB4KcYNHWrZM/gflRcAJAJASqayxvwP7TdV7XL1/7TiuX00HyFAYrcgpIUgAIzvTukGgL5NGzpcaLz6pNZ6etIPldn4d9rQBcBOzmSf12PWqVyurhFD+E7W0NOBnIWsEvzb0/WBoTE1CBhPqzzXIL3c0OFRzzdzOHZDh0rrOdP16lfW4Bm3eQbiNuRJ4BOtn9vsCHUAXyFAsh/IJ0lfPd4DGNKp1qeGUqEAfrQqZ6ea09Vr04YO0tuhwC2QrFTW4t5DcGhp/IYMAA5B4Ag+Q092DdYAAAcGSURBVIBkX8paZQ9PIi0nokIBfGlVTgDYpr+hQ46jISEsxVSg2Pk8CXwi+/nXYiR/L77WBPQ1Yn0A0uJ6FphrCAynFQEAftyJxl/sZvI7mnUq28IXexgjBLj1AcsR7gUMhSAADKcVAQD+zEIXAK+qZIvnfbsSG3zsZYwQINm0ChIaUkMQAI7XigAAf26VxsFtJWtGus9EtDX3MlYIkOxB8GXE+wFDcEHgInA5gBS1IgDAr1noAuBNTab3St6YIUCyL+vtyPcEjjWRHQrUBC4HkJKZCADw65sYBYjdmcbd2epENv0IO/C9O9AmjexDkcMhMSjLzerXNmQhgAQ0kj6HLgSythSjACkIMZ3WHUZ2rNkA13ip8nDNg4UIAZJt49SJIID03Gh96A+AnzVaB2bAl5nYESgFVYB7nsl2jDpW9h0ZY08HchayIPAY6P7AoW5FAAC2aUQAgH+P4nAw4GihQoBkQaARW4ciHfdiXQCwTSMCAMbBDjDAAEKGAMl6VGsRBBC/R7FDELBNIwIAxvFNNp0YwJFChwCJIID4PYrjyIFtGhEAMI4nsRg4NSGemzyrdxRqYfBLLgh0su0YgVgQAAAgDheiLk5NiDV0Q91zzLOtuhHv9X+xhABpHQTuNO6essA2BADgbe3qV0YD4NMXsSlDirqR77cc8J6zga4TrRimA/U9yLZ2YtcghEYAAHbXSvoQuhDI1r0KaJBlbMxDYofYGrQYsYUAie1DER4BANhfK4IAhvckNmVIXZvpvZIXYwiQ1kFgzPQISAQA4BitpD/FRg8YxlKsA8hBJxvN8e1e7By1l1hDgLQ+R+Bb4HKgHLciAADHuhM7vmEYjVgHkIsxznZoRrhHVmIOAc6VGGKGf7eyCoQAABzPbfTAtE4c6oOY352TB0mfPF7/g6S5x+tnKYUQINkQ8x+iZwl+fBA9CMDQXBAYYxoA8vJFzO3O0bX8TPO+FZ+Xg6QSAiR7oFTigYLhLCW9E5UH4Itb38W0TuzqVuwElLNGw9YH30Qn3sFSCgHS+oEy5gEOyNOjbDvaLnA5gBK4aZ2M5uI1blom8nal4zcQWK6uMcZag2ylFgKcmawHlwcKDnErCwDzwOUAStKKdQLY7pMIACW5k83u+KL92nLL1f9TiTUjR0s1BEjWg1tJ+h62GEiI6zloApcDKJVbJ8D0IPR9kM0XR1kWsk7dSvYZ+C47F+Klp9W/+7D6b2diE49B/Ba6AEdayPYQvpD1Mk2ClgYxe5R9TuaBywGUbiEbwr9bvai3y7WUdcrQo1u2hawN14YtRnlSHgnoc8NKjApgky9i+g8Qm05Wb3MoZJmeZKNCBAAgkFxCgLQeFeC0SjiPsq1lZ4HLAWAzdyjkO22eBoA8fZd1zHAQGBBQTiHAcaMCzDktl1s4xEMGSEMn+76y81v+Psk67JjTDQSWYwiQ1nNO/xDnCpTmXtaYmAUuB4D9uEWCv4upnTl6kj2TWQAMRCLXEOC4nSj+FEPNuXuS/ZxrMfcfSNlc1lP8TmwnmotvYmQWiE7uIcBxU4Q4rCY/7BkM5KmTNRw/iE6cVD3KwtyVmP4DRKeUEOC0OuxwCsTpVus9gwHkqdW6E4cwkIb+uqwubFEAbFNaCJCeH05BGEjTrWzecCN6l4BStCIMpMCdyD4LXA4AbygxBDguDEzFQyUV/cb/PGhJAITSysLAO7HxQ0zuZQt/G1E/A0koOQT0tbKHyp/ioRIjGv8AXupkGwH8LqsjGNUN414WyGqx8BdIym+hCxAZd4x9JRsluBBH2oeylG0ldy2m/ADYbi7rIJjK6uwrSacBy1OKW1kHWhe2GAigDl2AAZ2FLkBIv/z777+hyxAzHirju5c9WNqwxRhFLelH6EJ48EXMB0ZYlazevpB0ErYoWVnK6uZrMSpbgtIbiL+ELoBvTAd63UJW4Z3Jhpy/iLUDPjzJ9pH+XdYwbkMWBkDy5rIQUMmmqjBd6Dj3srVzU9n7Og9aGgCDYCTgMGey4Wd6mQ631Hr6Van7+58pz9MzWxHkEKcLWUcDdffbHmXf4zvR6C9V6Q3E7EcCCAHHO9P6oXIetijRe5LNHy254Q8gDtTdP6Phj77SG4iEAOxlKnuo1KKnybmXPVA6sXMEgDj16+5a5awBcx0znayeZhMG9JXeQCQE4Cj9B8uZ8u9tWsoa+l3vBQApqrWuu2vlsVPco57X0fOAZUH8utAFCKwOXQDfCAHjO9vwSvHh8iR7gHSyh8qDeKAAyFe1etW938fcseMa/HOt62l6+gH8HyEgDlNZGKhWr7Pen4UMCK6h//LVhSkOAESn2vKS/IYEVz9LVicvtG70zzf9DwDQRwhIgwsEL3/vuNCwq7l+fkh0W34PADheveHPXqu7XaP+rT8DgIP8Dw7/6sck8DMpAAAAAElFTkSuQmCC;rounded=0;" vertex="1" parent="6A_LMK3GcHGA9ymQ-XDU-57">
          <mxGeometry x="10" width="131.99999999999997" height="40.67999999999999" as="geometry" />
        </mxCell>
        <mxCell id="W0A_UsUeEscUTKiAkl8b-31" value="" style="group" connectable="0" vertex="1" parent="1">
          <mxGeometry x="-1140" y="80" width="157" height="222" as="geometry" />
        </mxCell>
        <mxCell id="W0A_UsUeEscUTKiAkl8b-27" value="Legend" style="text;html=1;align=left;verticalAlign=middle;whiteSpace=wrap;rounded=0;fontFamily=Helvetica;fontSize=11;fontColor=default;labelBackgroundColor=default;" vertex="1" parent="W0A_UsUeEscUTKiAkl8b-31">
          <mxGeometry width="60" height="30" as="geometry" />
        </mxCell>
        <mxCell id="xuvJR_DhB2RLNJn4BB_C-5" value="" style="group" connectable="0" vertex="1" parent="W0A_UsUeEscUTKiAkl8b-31">
          <mxGeometry y="40" width="157" height="182" as="geometry" />
        </mxCell>
        <mxCell id="W0A_UsUeEscUTKiAkl8b-24" value="" style="rounded=1;whiteSpace=wrap;html=1;fontFamily=Helvetica;fontSize=11;fontColor=default;labelBackgroundColor=default;" vertex="1" parent="xuvJR_DhB2RLNJn4BB_C-5">
          <mxGeometry y="-15" width="150" height="175" as="geometry" />
        </mxCell>
        <mxCell id="xuvJR_DhB2RLNJn4BB_C-2" value="" style="edgeStyle=none;orthogonalLoop=1;jettySize=auto;html=1;rounded=0;dashed=1;dashPattern=8 8;fillColor=#f8cecc;strokeColor=#b85450;endArrow=none;endFill=0;" edge="1" parent="xuvJR_DhB2RLNJn4BB_C-5">
          <mxGeometry width="80" relative="1" as="geometry">
            <mxPoint x="60" y="15" as="sourcePoint" />
            <mxPoint x="140" y="15" as="targetPoint" />
            <Array as="points" />
          </mxGeometry>
        </mxCell>
        <mxCell id="xuvJR_DhB2RLNJn4BB_C-4" value="Wifi" style="text;html=1;align=left;verticalAlign=middle;whiteSpace=wrap;rounded=0;fontColor=#bf4040;" vertex="1" parent="xuvJR_DhB2RLNJn4BB_C-5">
          <mxGeometry x="10" width="60" height="30" as="geometry" />
        </mxCell>
        <mxCell id="W0A_UsUeEscUTKiAkl8b-19" value="" style="outlineConnect=0;dashed=0;verticalLabelPosition=bottom;verticalAlign=top;align=center;html=1;shape=mxgraph.aws3.ec2_compute_container;fillColor=#F58534;gradientColor=none;" vertex="1" parent="xuvJR_DhB2RLNJn4BB_C-5">
          <mxGeometry x="70" y="50" width="60" height="34.5" as="geometry" />
        </mxCell>
        <mxCell id="W0A_UsUeEscUTKiAkl8b-22" value="" style="image;sketch=0;aspect=fixed;html=1;points=[];align=center;fontSize=12;image=img/lib/mscae/VM_Linux.svg;" vertex="1" parent="xuvJR_DhB2RLNJn4BB_C-5">
          <mxGeometry x="75" y="100" width="50" height="46" as="geometry" />
        </mxCell>
        <mxCell id="W0A_UsUeEscUTKiAkl8b-23" value="VM" style="text;html=1;align=left;verticalAlign=middle;whiteSpace=wrap;rounded=0;fontFamily=Helvetica;fontSize=11;fontColor=default;labelBackgroundColor=default;" vertex="1" parent="xuvJR_DhB2RLNJn4BB_C-5">
          <mxGeometry x="10" y="108" width="60" height="30" as="geometry" />
        </mxCell>
        <mxCell id="W0A_UsUeEscUTKiAkl8b-21" value="Container" style="text;html=1;align=left;verticalAlign=middle;whiteSpace=wrap;rounded=0;fontFamily=Helvetica;fontSize=11;fontColor=default;labelBackgroundColor=default;" vertex="1" parent="xuvJR_DhB2RLNJn4BB_C-5">
          <mxGeometry x="10" y="52.25" width="60" height="30" as="geometry" />
        </mxCell>
        <mxCell id="xuvJR_DhB2RLNJn4BB_C-11" value="Ethernet" style="text;html=1;align=left;verticalAlign=middle;whiteSpace=wrap;rounded=0;" vertex="1" parent="xuvJR_DhB2RLNJn4BB_C-5">
          <mxGeometry x="10" y="20" width="60" height="30" as="geometry" />
        </mxCell>
        <mxCell id="xuvJR_DhB2RLNJn4BB_C-10" value="" style="edgeStyle=none;orthogonalLoop=1;jettySize=auto;html=1;rounded=0;endArrow=none;endFill=0;" edge="1" parent="W0A_UsUeEscUTKiAkl8b-31">
          <mxGeometry width="80" relative="1" as="geometry">
            <mxPoint x="60" y="75" as="sourcePoint" />
            <mxPoint x="140" y="75" as="targetPoint" />
            <Array as="points" />
          </mxGeometry>
        </mxCell>
        <mxCell id="pd6t9ht38WgvGKXgcOnb-24" value="&lt;div&gt;go1-mcu&lt;/div&gt;&lt;div&gt;&lt;br&gt;&lt;/div&gt;&lt;div&gt;192.168.123.10&lt;/div&gt;" style="strokeColor=#dddddd;shadow=1;strokeWidth=1;rounded=0;absoluteArcSize=1;arcSize=2;labelPosition=center;verticalLabelPosition=middle;align=center;verticalAlign=bottom;spacingLeft=0;fontColor=#999999;fontSize=12;whiteSpace=wrap;spacingBottom=2;html=1;container=0;" vertex="1" parent="1">
          <mxGeometry x="985.25" y="489" width="84.75" height="108.5" as="geometry" />
        </mxCell>
        <mxCell id="pd6t9ht38WgvGKXgcOnb-36" value="" style="group" connectable="0" vertex="1" parent="1">
          <mxGeometry x="20" y="287.5" width="182.45" height="65" as="geometry" />
        </mxCell>
        <mxCell id="7gLJXXXmOJEUtCaO89vG-16" value="&lt;div&gt;go1-pc&lt;/div&gt;&lt;div&gt;192.168.0.2 (ETH0)&lt;br&gt;&lt;/div&gt;&lt;div&gt;192.168.123.51 (ETH1-3)&lt;br&gt;&lt;/div&gt;" style="strokeColor=#666666;html=1;labelPosition=right;align=left;spacingLeft=15;shadow=0;dashed=0;outlineConnect=0;shape=mxgraph.rack.general.switches_1;points=[[0.5,0,0,0,0],[0.5,1,0,0,0],[0.75,1,0,0,0]];rounded=0;" vertex="1" parent="pd6t9ht38WgvGKXgcOnb-36">
          <mxGeometry width="162" height="35" as="geometry" />
        </mxCell>
        <mxCell id="C9zYjv5VxLuAIvRQ-mTP-2" value="" style="sketch=0;html=1;verticalAlign=top;labelPosition=center;verticalLabelPosition=bottom;align=center;spacingTop=-6;fontSize=11;fontStyle=1;fontColor=#999999;shape=image;aspect=fixed;imageAspect=0;image=data:image/svg+xml,PHN2ZyB4bWxucz0iaHR0cDovL3d3dy53My5vcmcvMjAwMC9zdmciIHhtbG5zOnY9Imh0dHBzOi8vdmVjdGEuaW8vbmFubyIgd2lkdGg9IjIwIiBoZWlnaHQ9IjIwIiB2aWV3Qm94PSIwIDAgMjAgMjAiPiYjeGE7CTxzdHlsZSB0eXBlPSJ0ZXh0L2NzcyI+JiN4YTsJLnN0MHtmaWxsOiM0Mjg1ZjQ7fSYjeGE7CS5zdDF7ZmlsbDojNjY5ZGY2O30mI3hhOwkuc3Qye2ZpbGw6I2FlY2JmYTt9JiN4YTsJPC9zdHlsZT4mI3hhOwk8cGF0aCBjbGFzcz0ic3QyIiBkPSJNNyA3aDZ2Nkg3eiIvPiYjeGE7CTxwYXRoIGNsYXNzPSJzdDEiIGQ9Ik05IDBoMnY0SDl6TTUgMGgydjRINXptOCAwaDJ2NGgtMnoiLz4mI3hhOwk8cGF0aCBjbGFzcz0ic3QwIiBkPSJNOSAxNmgydjRIOXptLTQgMGgydjRINXptOCAwaDJ2NGgtMnptMy01VjloNHYyem0wIDR2LTJoNHYyem0wLThWNWg0djJ6Ii8+JiN4YTsJPHBhdGggY2xhc3M9InN0MSIgZD0iTTAgMTFWOWg0djJ6bTAgNHYtMmg0djJ6bTAtOFY1aDR2MnoiLz4mI3hhOwk8cGF0aCBjbGFzcz0ic3QyIiBkPSJNMyAzdjE0aDE0VjN6bTEyIDEySDVWNWgxMHoiLz4mI3hhOwk8cGF0aCBjbGFzcz0ic3QxIiBkPSJNMTAgMTBsLTMgM2g2eiIvPiYjeGE7CTxwYXRoIGNsYXNzPSJzdDAiIGQ9Ik0xMyA3bC0zIDMgMyAzeiIvPiYjeGE7PC9zdmc+;" vertex="1" parent="1">
          <mxGeometry x="1006.6199999999999" y="497.5" width="42" height="42" as="geometry" />
        </mxCell>
        <mxCell id="C9zYjv5VxLuAIvRQ-mTP-5" style="edgeStyle=orthogonalEdgeStyle;rounded=0;orthogonalLoop=1;jettySize=auto;html=1;entryX=1;entryY=0.5;entryDx=0;entryDy=0;endArrow=none;endFill=0;exitX=0.5;exitY=1;exitDx=0;exitDy=0;exitPerimeter=0;" edge="1" parent="1" source="7gLJXXXmOJEUtCaO89vG-16" target="ijKMyixCJjlSJLWHBlUi-6">
          <mxGeometry relative="1" as="geometry">
            <mxPoint x="-350" y="360" as="sourcePoint" />
          </mxGeometry>
        </mxCell>
        <mxCell id="C9zYjv5VxLuAIvRQ-mTP-10" value="Docker" style="edgeLabel;html=1;align=center;verticalAlign=middle;resizable=0;points=[];fontFamily=Helvetica;fontSize=11;fontColor=default;labelBackgroundColor=default;" connectable="0" vertex="1" parent="C9zYjv5VxLuAIvRQ-mTP-5">
          <mxGeometry x="-0.8833" relative="1" as="geometry">
            <mxPoint y="44" as="offset" />
          </mxGeometry>
        </mxCell>
        <mxCell id="C9zYjv5VxLuAIvRQ-mTP-7" style="edgeStyle=orthogonalEdgeStyle;shape=connector;rounded=0;orthogonalLoop=1;jettySize=auto;html=1;exitX=0.5;exitY=1;exitDx=0;exitDy=0;entryX=0.5;entryY=0;entryDx=0;entryDy=0;entryPerimeter=0;strokeColor=default;align=center;verticalAlign=middle;fontFamily=Helvetica;fontSize=11;fontColor=default;labelBackgroundColor=default;endArrow=none;endFill=0;" edge="1" parent="1" source="U0BUh_aV6mO99cxN8OCH-17" target="7gLJXXXmOJEUtCaO89vG-16">
          <mxGeometry relative="1" as="geometry" />
        </mxCell>
        <mxCell id="C9zYjv5VxLuAIvRQ-mTP-8" value="ETH0" style="edgeLabel;html=1;align=center;verticalAlign=middle;resizable=0;points=[];fontFamily=Helvetica;fontSize=11;fontColor=default;labelBackgroundColor=default;" connectable="0" vertex="1" parent="C9zYjv5VxLuAIvRQ-mTP-7">
          <mxGeometry x="0.9159" y="1" relative="1" as="geometry">
            <mxPoint as="offset" />
          </mxGeometry>
        </mxCell>
        <mxCell id="C9zYjv5VxLuAIvRQ-mTP-11" style="edgeStyle=orthogonalEdgeStyle;shape=connector;rounded=0;orthogonalLoop=1;jettySize=auto;html=1;exitX=0.75;exitY=1;exitDx=0;exitDy=0;exitPerimeter=0;entryX=0;entryY=0.5;entryDx=0;entryDy=0;strokeColor=default;align=center;verticalAlign=middle;fontFamily=Helvetica;fontSize=11;fontColor=default;labelBackgroundColor=default;endArrow=none;endFill=0;" edge="1" parent="1" source="7gLJXXXmOJEUtCaO89vG-16" target="U0BUh_aV6mO99cxN8OCH-22">
          <mxGeometry relative="1" as="geometry" />
        </mxCell>
        <mxCell id="C9zYjv5VxLuAIvRQ-mTP-12" value="ETH1-3 (bridged)" style="edgeLabel;html=1;align=center;verticalAlign=middle;resizable=0;points=[];fontFamily=Helvetica;fontSize=11;fontColor=default;labelBackgroundColor=default;" connectable="0" vertex="1" parent="C9zYjv5VxLuAIvRQ-mTP-11">
          <mxGeometry x="-0.1642" y="-3" relative="1" as="geometry">
            <mxPoint x="-1" as="offset" />
          </mxGeometry>
        </mxCell>
        <mxCell id="ijKMyixCJjlSJLWHBlUi-54" value="&lt;div&gt;ouster&lt;/div&gt;&lt;div&gt;&lt;br&gt;&lt;/div&gt;" style="outlineConnect=0;dashed=0;verticalLabelPosition=bottom;verticalAlign=top;align=center;html=1;shape=mxgraph.aws3.ec2_compute_container;fillColor=#F58534;gradientColor=none;movable=0;resizable=0;rotatable=0;deletable=0;editable=0;locked=1;connectable=0;" vertex="1" parent="1">
          <mxGeometry x="-1100" y="407.5" width="60" height="34.5" as="geometry" />
        </mxCell>
        <mxCell id="ijKMyixCJjlSJLWHBlUi-55" value="&lt;div&gt;realsense&lt;/div&gt;&lt;div&gt;&lt;br&gt;&lt;/div&gt;" style="outlineConnect=0;dashed=0;verticalLabelPosition=bottom;verticalAlign=top;align=center;html=1;shape=mxgraph.aws3.ec2_compute_container;fillColor=#F58534;gradientColor=none;movable=0;resizable=0;rotatable=0;deletable=0;editable=0;locked=1;connectable=0;" vertex="1" parent="1">
          <mxGeometry x="-996" y="407.5" width="60" height="34.5" as="geometry" />
        </mxCell>
        <mxCell id="ijKMyixCJjlSJLWHBlUi-62" value="&lt;div&gt;foxglove&lt;/div&gt;&lt;div&gt;&lt;br&gt;&lt;/div&gt;" style="outlineConnect=0;dashed=0;verticalLabelPosition=bottom;verticalAlign=top;align=center;html=1;shape=mxgraph.aws3.ec2_compute_container;fillColor=#F58534;gradientColor=none;movable=1;resizable=1;rotatable=1;deletable=1;editable=1;locked=0;connectable=1;" vertex="1" parent="1">
          <mxGeometry x="-1100" y="497.5" width="60" height="34.5" as="geometry" />
        </mxCell>
        <mxCell id="ijKMyixCJjlSJLWHBlUi-63" value="&lt;div&gt;ros1bridge&lt;br&gt;&lt;/div&gt;" style="outlineConnect=0;dashed=0;verticalLabelPosition=bottom;verticalAlign=top;align=center;html=1;shape=mxgraph.aws3.ec2_compute_container;fillColor=#F58534;gradientColor=none;movable=0;resizable=0;rotatable=0;deletable=0;editable=0;locked=1;connectable=0;" vertex="1" parent="1">
          <mxGeometry x="-996" y="497.5" width="60" height="34.5" as="geometry" />
        </mxCell>
        <mxCell id="FkthiYPeSRhGyDQ8fWFa-33" value="olivetin" style="outlineConnect=0;dashed=0;verticalLabelPosition=bottom;verticalAlign=top;align=center;html=1;shape=mxgraph.aws3.ec2_compute_container;fillColor=#F58534;gradientColor=none;movable=0;resizable=0;rotatable=0;deletable=0;editable=0;locked=1;connectable=0;" vertex="1" parent="1">
          <mxGeometry x="-890" y="407.5" width="60" height="34.5" as="geometry" />
        </mxCell>
        <mxCell id="FkthiYPeSRhGyDQ8fWFa-34" value="&lt;div&gt;webui-joystick&lt;/div&gt;&lt;div&gt;&lt;br&gt;&lt;/div&gt;" style="outlineConnect=0;dashed=0;verticalLabelPosition=bottom;verticalAlign=top;align=center;html=1;shape=mxgraph.aws3.ec2_compute_container;fillColor=#F58534;gradientColor=none;movable=0;resizable=0;rotatable=0;deletable=0;editable=0;locked=1;connectable=0;" vertex="1" parent="1">
          <mxGeometry x="-890" y="497.5" width="60" height="34.5" as="geometry" />
        </mxCell>
        <mxCell id="FkthiYPeSRhGyDQ8fWFa-41" value="&lt;div&gt;ros_master&lt;br&gt;&lt;/div&gt;" style="outlineConnect=0;dashed=0;verticalLabelPosition=bottom;verticalAlign=top;align=center;html=1;shape=mxgraph.aws3.ec2_compute_container;fillColor=#F58534;gradientColor=none;movable=0;resizable=0;rotatable=0;deletable=0;editable=0;locked=1;connectable=0;" vertex="1" parent="1">
          <mxGeometry x="-790" y="407.5" width="60" height="34.5" as="geometry" />
        </mxCell>
        <mxCell id="cekTMfFaaItnmFHdDz4w-1" value="arduino-imu" style="outlineConnect=0;dashed=0;verticalLabelPosition=bottom;verticalAlign=top;align=center;html=1;shape=mxgraph.aws3.ec2_compute_container;fillColor=#F58534;gradientColor=none;movable=0;resizable=0;rotatable=0;deletable=0;editable=0;locked=1;connectable=0;" vertex="1" parent="1">
          <mxGeometry x="-790" y="497.5" width="60" height="34.5" as="geometry" />
        </mxCell>
        <mxCell id="C9zYjv5VxLuAIvRQ-mTP-4" value="" style="shape=image;verticalLabelPosition=bottom;labelBackgroundColor=default;verticalAlign=top;aspect=fixed;imageAspect=0;image=data:image/png,iVBORw0KGgoAAAANSUhEUgAAAgAAAAIACAYAAAD0eNT6AAAABHNCSVQICAgIfAhkiAAAAAlwSFlzAAAN1wAADdcBQiibeAAAABl0RVh0U29mdHdhcmUAd3d3Lmlua3NjYXBlLm9yZ5vuPBoAACAASURBVHic7d13nB1lof/xz2zfTS8kAUNIgAABQZp0HdqlCgYscBUpAqI43h9iBa9X1GuB6xW8jihVmg0x1IReRkMLCRBaEtILKZtNsr2e3fn9MSeQhC3nnD1znpk53/frta9Nwu4539XkPN/zzDPPY/m+j4hEm+V41cCYAT6GAJVARfpzJr+2gM4sPlqBzdt8bNnh91s/GnzX1ouLSIRZKgAi5liOVwHsCkwBJm/zeQLbD+7VZhLmrBuoB2qBVcDKHT6vAtb4rp0yllCkyKkAiITIcrwSYBLbD+7bft4FKDGTzrgeYC3bl4IlwDvAAt+1txjMJpJ4KgAieWI53ljgAGD/9OcDgP2I37v3qFhPUAa2fiwA3vFdu9ZoKpGEUAEQyVJ62n4aHwzyWwf8nU3mKiKb+KAUzAPmAG/5rt1tNJVIzKgAiAzAcrw9gKOBY4AjgX2AMqOhZEetwKsEZWAOMMd37eVmI4lEmwqAyDYsxysDDuKDAf9oggV5Ej8b2aYQAC9rXYHIB1QApKhZjjec4F391gH/cKDGaCgJSw/BLMHT6Y/Zvmu3mY0kYo4KgBSV9Kr8w4BTgVOAQyneVfjFrgN4AXiKoBDM1ToCKSYqAJJ4luNNAE4mGPBPAkabTSQR1QA8R1AGnvRde6HZOCLhUgGQxElfxz+KYMA/BTiQYMc7kWwsAR5Mfzzvu3aP4TwieaUCIIlgOd4IYDpwJnAiMNxsIkmYOuBhgjLwpO/arYbziAyaCoDEluV4wwgG/HMIpvgrzCaSItEGPElQBh7RxkQSVyoAEiuW4w0BPkUw6J8KVJlNJEWuh2Ah4Z+Be33X3mQ4j0jGVAAk8tIn4Z1GMOifjm7Tk2jqAmYBdxPMDHQYziPSLxUAiaT07XonAecDZwBDzSYSyUo98HeCMjBbRyNLFKkASKRYjjcR+DJwMcEpeiJxtwL4E3C379qLDGcReZ8KgBhnOV4pwdT+pQTX9UvNJhIJzRzgD8BftQuhmKYCIMZYjjeF4J3+RcAuhuOIFNJm4I/AH3zXXmI6jBQnFQApKMvxyoFPA18huF9fG/RIMfOBJ4AbgZnailgKSQVACsJyvLHA5cDXgXGG44hE0SrgJuBW7S0ghaACIKGyHG8qcCVwAVBtOI5IHHQC9wG/8V17jukwklwqABIKy/GOAb5FsFOfTtsTyc2zwC99137CdBBJHhUAyZv0av6zgG8DhxuOI5IkrwHXAvdpnYDkiwqADFp6e94vA1cAuxuOI5JkS4H/Ae7QToMyWCoAkjPL8YYTDPpXAKMMxxEpJuuBG4Df+67daDqMxJMKgGQt/Y7fAb4LjDYcR6SYNRDcQvg/vmtvMR1G4kUFQDJmOV4V8DXg++hWPpEoaSC4NHCD79otpsNIPKgAyIAsx6sALgF+gHbsE4myWuDnBDsMao2A9EsFQPpkOV4ZcCHwQ3Qwj0icrAJ+DNypuwakLyoA8iHpo3i/CPwI2MNwHBHJ3SKCAn+fjiSWHakAyHYsxzuWYHXxxwxHEZH8eQ242nftx0wHkehQARDg/ZP5fgWcbTqLiITmUeAK37XfNR1EzFMBKHKW4w0FribYr7/ScBwRCV8X8BvgJ75rN5kOI+aoABQpy/EsggN6fgFMMBxHRApvPXAVwUJBDQRFSAWgCFmOdzTBdf5DTWcREePmAN/QyYPFRwWgiFiON4ngQJFzTWcRkUjxgTuBq3zXXm86jBSGCkARSJ/S902C+4JrDMcRkehqIniduEH7BySfCkDCWY53IHArcIjpLCISG68CF/uu/brpIBIeFYCESu/bfw3wLaDMbBoRiaEU8L/ANb5rt5sOI/mnApBA6c18bgamGo4iIvG3BLjUd+3nTAeR/FIBSBDL8UYSnAh2MWAZjiMiyeEDtwHf8V273nQYyQ8VgISwHO9swAV2Np1FRBJrHeD4rj3DdBAZPBWAmLMcbwJwI3CW6SwiUjTuBy7XLYPxpgIQY5bjnUkwLTfWdBYRKTp1wCW+az9oOojkRgUghizHqwF+DVxmOouIFL1bgG/6rt1iOohkRwUgZizHOxj4M7C36SwiImnvAuf5rv2K6SCSORWAmLAcrwT4NvDfQLnhOCIiO0oR7D3yC9+1ewxnkQyoAMSA5XgTgbuA40xnEREZwGyC2YCVpoNI/0pMB5D+WY73OeANNPiLSDwcA7xhOd55poNI/zQDEFGW4w0FfgtcaDiKiEiu7gEu81271XQQ+TAVgAiyHG9vgvtsp5nOIiIySG8Bn/Fd+13TQWR7ugQQMZbjTQfmoMFfRJLho8ArluNps7KI0QxARKRX+f838H20j7+IJNN1wNW+a3ebDiIqAJFgOd4Ygnv7TzKdRUQkZM8B5/iuXWs6SLFTATAsvbHPDGA301lERApkLfA537VfMB2kmGkNgEGW410IPI8GfxEpLrsAz1mO9x+mgxQzzQAYYDleBXAD8DXTWUREDLuH4FChDtNBio0KQIFZjjee4Ba/I01nERGJiNnAWb5r15kOUkxUAArIcrxpwCxgsuEoIiJRsxQ43XftRaaDFAutASgQy/GOA15Ag7+ISG/2AF60HO9400GKhQpAAViOdz7wODDSdBYRkQgbBTxmOd7FpoMUA10CCJnleNcAPzKdQ0QkZq4FrvJdW4NUSFQAQpJe6X8r8CXTWUREYmoGwdHCbaaDJJEKQAgsxxtJsNL/WMNRRETibi5wmu/aG00HSRoVgDyzHG8KMBMd5iMiki/vACf4rr3edJAk0SLAPLIc7xDgJTT4i4jk077APy3Hm2g6SJKoAOSJ5XjHAM8A40xnERFJoKkEJUBbp+eJCkAeWI73bwS3+Q03nUVEJMGmEJSAPUwHSQIVgEGyHO/TwMNAjeksIiJFYBJBCdjbdJC4UwEYBMvx/h24D6g0nUVEpIjsAniW433UdJA4UwHIkeV4lxCcYlVmOouISBEaDzxrOd6BpoPElQpADizHuwK4Gf3vJyJi0ljgGcvxPm46SBxpAMuS5Xj/CVwPWKaziIgIo4CnLMc7ynSQuNFGQFmwHO9a4Lumc4iIyIc0A5/yXdszHSQuNAOQIQ3+IiKRNhSYZTneiaaDxIUKQAbS0/4a/EVEoq0GeNhyvNNMB4kDXQIYQHrB3/Wmc4iISMY6gXN8137AdJAoUwHoR/pWv5vRgj8RkbhJAV/0Xfte00GiSgWgD+lNfu5Bl0lEROKqG7jQd+17TAeJIhWAXqS3970PbfIjIhJ3PQQl4G7TQaJGBWAH6YN9Hkbb+4qIJEUKONN37UdNB4kSFYBtpI/0fRwd7CMikjQtwAm+a79sOkhUqACkWY53CPAMOtJXRCSp6oBjfNdeZDpIFKgAAJbjTQFeAsaZziIiIqFaCRzlu/Za00FMK/oV7pbjjQRmosFfRKQY7AY8ZjneCNNBTCvqAmA5XgVwPzDNdBYRESmY/YGHLMerMh3EpKIuAMCtwLGmQ4iISMF9EviT5XhFOw4W7Q9uOd41wJdM5xAREWPOBn5nOoQpRbkI0HK884E7TecQEZFIuNJ37aI786XoCoDleMcR3OtfbjqLiIhEQjdwuu/aj5sOUkhFVQAsx5sGvACMNJ1FREQipQE4vJj2CCiaNQCW440HZqHBX0REPmwEwZ0BRTNGFEUB2OZ2v8mGo4iISHTtBdxrOV6p6SCFUBQFALgBONJ0CBERibx/A35tOkQhJH4NgOV4FwJ/NJ1DRERi5VLftW81HSJMiS4AluMdDDwPFPVuTyIikrUugtMD/2U6SFgSWwAsxxsDzCPY91lERCRbG4FDfddeZTpIGBK5BiC9teOf0eAvIiK52wn4m+V4idw3JpEFAPhv4CTTIUREJPaOAK41HSIMibsEYDnedGAGYJnOIiIiiXGW79oPmA6RT4kqAJbj7Q3MAYabziISR6NqyvjohGrTMbL28spmOruT81omkVQPHOy79nLTQfIlMQXAcryhBIP/NNNZROLqxL2GM+OiPU3HyNrUn7/JhqYu0zEk+eYCR/uu3Wk6SD4kaQ3Ab9HgLyIi4TkU+F/TIfIlEQXAcrzPAReaziEiIonnpMec2It9AbAcbyJwk+kcIiJSNG61HC9+18p2EOsCkL7f/y5glOksIiJSNIYDf7ccr9J0kMGIdQEAvg0cZzqEiIgUnQOBn5gOMRixLQDpff7/23QOEREpWt+2HO8Y0yFyFcsCYDleDcFWv4ncnlFERGKhBLgzfRt67MSyABCc1by36RAiIlL0diemtwbGrgBYjncmcJnpHCIiImlfsRzvVNMhshWrAmA53gTgNtM5REREdnCb5XijTYfIRqwKAHAjMNZ0CBERkR3sTDBGxUZsCoDleGcDZ5nOISIi0odzLMc713SITMWiAFiONxJwTecQEREZwO8sx9vFdIhMxKIAAP9DML0iIiISZaOB35kOkYnIFwDL8Y4FLjadQ0REJEPTLcc7w3SIgUS6AFiOVwXcDFims4iIiGTBtRxviOkQ/Yl0AQCuAaaaDiEiIpKlScCPTIfoT2QLgOV4BwLfMp1DREQkR9+0HG9/0yH6EskCYDleKXArUGY6i4iISI7KgJssx4vkZexIFgDgm8AhpkOIiIgM0pHApaZD9CZyBcByvEnAj03nEBERyZNfWo43znSIHUWuAADXAjWmQ4iIiOTJKCJ4YmCkCoDleEcDsdlGUUREJEPnWY53vOkQ24pMAUgvkrjBdA4REZGQ3JBe5B4JkSkAwAXAoaZDiIiIhGR/IrSzbSQKgOV4Q4FfmM4hIiISsp9ajjfcdAiISAEArgYmmA4hIiISsnEEY55xxguA5XhTgCtN5xARESmQK9Jjn1HGCwDwK6DSdAgREZECqSS45d0oowUgfdTv2SYziIiIGPC59K3vxhgrAJbjlaDb/kREpHhdb/KcAJMzAF8EPmbw+UVEREz6OMFYaISRAmA5XhkRPydZRESkAH5hOV61iSc2NQNwIbCHoecWERGJionAV008ccELgOV4FcAPC/28IiIiEfU9E7MAJmYALgEmGXheERGRKBoPXF7oJy1oAbAcrwr4QSGfU0REJAa+azleTSGfsNAzAF8Ddinwc4qIiETdOODrhXzCghUAy/GGAN8v1POJiIjEzHfSY2VBFHIGwCFoOCIiIvJhOwHfKNSTWb7vh/8kwdGHy4HRoT+ZiOSsotRiVE2Z6RhZ29jcRU/4L2UihbAJmOy7dnPYT1Sof+lXoMFfJPI6u302NHWZjiFSzMYA/wH8POwnCn0GIH09YzUwKtQnEhERSYbNBLMATWE+SSHWAHwZDf4iIiKZGg18JewnCXUGwHK8UmAxMCW0JxEREUme1cDuvmunwnqCsGcAzkKDv4iISLZ2BT4X5hOEXQC+HfLji4iIJNW3wnzw0AqA5XjHAIeH9fgiIiIJd4jleHZYDx7mDECozUVERKQIhDaWhrII0HK8qcBCzJw2KCIikhQ+MM137UX5fuCwBugrQ3xsERGRYmEB3wzlgfM9A2A53lhgFVCd1weWSJsyppLj9xxmOkbW7nhlE90Z7iEb15/x7rmb6OzO7GecOKKCk/cZHnKi/Pvzq5tp6+oxHUMkLG3AJN+16/L5oGFsBXw5GvyLziETa7h++iTTMbL2p3mbMy4Acf0Z75u/hc7u7oy+dp/xVbH8GR95p0EFQJKsmmBs/Uk+HzSv0/SW45VT4POMRUREisDX02Ns3uT7Ov2n0ZG/IiIi+TYOmJ7PB8x3AQh972IREZEidWk+HyxvBcByvCnAifl6PBEREdnOiZbj7Z6vB8vnDMDFBLcriIiISP5ZBGNtXuSlAKRP/bsoH48lIiIifbrIcry83MGXrxmA04Fd8vRYIiIi0rudgU/l44HyVQDyujBBRERE+pSXBfeDLgCW400ETs1DFhERKWIn7DWciw8fy6RRFaajRN3JluMNeseufFxH+DJQmofHERGRIvWZA0Zx8+cnU14arCVfvLGdJ99t5Ml3G3luSVPGO3YWiRKCxYA/GuyD5MxyvK0hREREcnLqtBHccs4Hgz/A1J2quPzocdx/0Z7Mu3Jfzj1oNKUlutFsG19OL8DP2WAvAZwExG/jcBERiYSjJg/lzi9MoayfwX33MZXc/PnJzLliGp/92CjUAwCYCJwwmAcYbAE4f5DfLyIiRWr/nau594I9qCrLbCiaulMVt587hX9+Yxp77VQVcrpY+PfBfHPOBcByvGrgjME8uYiIFKfJoyuZcdGeDK/Kfhb7gJ2r8Zx9OOeg0SEki5WzLMerzPWbBzMDcBowdBDfLyIiRaiqrIS/nr8744flfrjdkIoSbvn8ZH579iSqy/N9rE1sjGAQd+EN5n+1cwbxvSIiUqT++7SPsO/46rw81gUfH8uTX9ubsUPysjleHJ2b6zfmVAAsxxtCsPufiIhIxk6dNoKvHLlTXh/zgJ2rmXnpXuw0tChLwBnpMTlruc4AfAqoyfF7RUSkCE0YVs6Nn9ktlMeeNr6KmZfuxbihuV9WiKka4MxcvjHXAqDpfxERyZhlwU2fn8yYEKfq9xlXxcxLpw5qbUFM5XQ3QNYFwHK8YWjrXxERycI3jhnPcXsOC/159h5Xxb3n70FlWVFtFnCy5Xijsv2mXGYAzgR0A6aIiGTkY7vU8KOTC3dg7EETa7h+elHtUVcBnJ3tN+VSADT9LyIiGfvfT++63Ta/hXDeIWO4+PCxBX1Ow7K+GyCrAmA53gjg5GyfREREitPJ+4zgsEk5LVIftGvP2NXYcxtwXLaXAbKdAZhOMNUgIiLSL8uCH55UuKn/HVWUWtzxhSkMrSyKA2tLyfINerYFIKdbDUREpPhM/+goDtg5Pxv+5GriiAp+ZLCEFNinsvnijAuA5XhlwIlZxxERkaJTWmLxg3/b2XQMAC49cicO3bUoLgWcYjlexuN6NjMARwHDs88jIiLF5pwDR0fmxL4SC3579qSCL0Q0YAxwRKZfnE0BOCX7LCIiUmzKSy2uPjEa7/632m9CNc4x40zHKISMLwOoAIiISF5d8PGxTBoVvfXiVx47Iafjh2Mm43N6MioAluNNAA7MOY6IiBSF6vISvnPcBNMxejWiqpSvHpXfg4gi6ADL8XbN5AsznQE4GUj8xRMRERmcCw8by87Do7sX/9ePHlcMtwWelskXZVoANP0vIiIDuvDj0d59b1RNGZfl+TjiCMpoHcCABSB9S8FJg44jIiKJduBHapg2Phor//vjHDOOIRW5HoYbC8dbjjfg/xGZ/C9wGDB68HlERCTJzjtkjOkIGRkzpIxLj0j0LEAN8ImBviiTAqCjf0VEpF8VpRaf/VjWJ9Ia841PjKe6PNGzAPZAX5DJT6/r/yIi0q9T9hnB6Joy0zEyttPQsqSfFvjJgb6g3wJgOd5w4NC8xRERkUT67IHxu1L8/z6Z6FmAwwZaBzDQT35kBl8jIiJFrLTE4rg9h5mOkbXxw8o5J4bFJUOVwOH9fcFAg/vR+csiIiJJdPDEGkbEdIe9cw9ObAGAAdYBDHTB5pg8BpEEa+vqoba5y3SMrPn4GX9tXH/Gnsx/RDpTfix/xu5sfkjJu+P3jO85cUfuNpRJoypYtaXTdJQw9FsALN/v/R9O+vjfBoLbCURERHr1+GV7ceTkoaZj5OwnT6zlV8+uNx0jDK3ASN+1e231/V0COAgN/iIi0o+hlaV8fNIQ0zEGJcHrAGqAj/f1H/srALr+LyIi/frE7kMpK4n3UTF7j6viY7sk9v1un7cD9lcAdP1fRET6dWBCBs5zD0rsLECf6wA0AyAiIjnbe1z09/7PxGc/NorSmM9k9OHo9Jk+H9LrH1qOtwcQzQOdRUQkMpJSAMYPK8feI357GWRgGLBXb/+hrxkAvfsXEZF+lZZY7Dk2GQUA4PMHxucsgywd0tsf9lUAdP1fRET6NWV0BZVlyZk2P3Gv4VjJ+XG2dXBvf9hXATgyxCAiIpIASZn+32rc0HI+OqHadIwwZFYALMerAPYJPY6IiMTaPuOSN1gePzW+uxr24yDL8T40t9HbDMA0Bt4iWEREityEYeWmI+RdQgvACGCPHf+wt4H+gPCzFJfDdxvC2QfE7x7T7z28OuOv/dguNXzhkDEhpgnHD2auIZXhPvJx/Rmveew92rp6MvravXaq4uIjdgo5Uf799In3aO7I7GfcfUwllx01LuRE+ffLp9aypa3bdIztDI/pAUD9OWryUKrLSzL+NxMjhwBLtv0DFYAC+OiEGr52VPxeVLMpAFN3qorlz/ijx97LuADE9Wf8+ZNracvwfJ9Joypi+TP++rn1GReAj4yI58/4u9kbIlcARlQnrwBUllkcNWUoT7/baDpKvh0M/G3bP+jtEsD+hckiIiJxlsQZAIATknkZ4EMLAXsrAJoBEBGRAY1IaAE4ds9EbgjUfwGwHG8ssHPB4oiISGwltQDsO76amor+dsqPpdGW403e9g92/An17l9ERDKSxDUAACUWST0dcLsxfscCoOv/IiKSkaHJe5f8voM+ksgCsN2ZAJoBEBGRnHR2Z3YHTRwdPFEFQEREpFeZ3noZRwcmcwZg721/8/4+AOnzgvcreBwREYml1uRtlvO+qWOrGFpZSnNHZnsvlJZYDKssYVhlafBRFfy6rMSivauH9pRPW1cPHame9Gef1q4eGtsLurfDdjMA224ENAlI3sbOIiISikwHxziyLDhwl2pmL2+mrMRi11EVTBldyZTRFUwZU8mU0ZVMHl3JuKFlDK8qpbo8t/UQbV09rG/s4r3GLtY1dLK2sYu1jV28V9/J/LWtrNzSmc8fa4LleMN8126C7QvA5Hw+i4iIJFtrZ3JnAAD+7+zdKCuBiSMrKCsJ55zg6vKSoFCMqez1v29sTjF3dQuvrG5h7qoW5q1ppWlwxWsvYB5sXwCmDOYRRUSkuDQnvADsObb3QbmQdhpaxqnTRnDqtBEA9PiwqLY9KAWrWpi7uoUFte10Z7ilOX0UgMn5DC0iIsmW9BmAKCqxYNr4KqaNr+JLhwaHk7V09vDqmhaeXtzEffM3s6r/ywbvLwTUDICIiOSkpTO5awDiZEhFCZ/YfRif2H0Y15y8C3NWtXDv65t54M16aps/dBLY+wsBNQMgIiI5WdeY4TGTUlCHTRrCYZOGcO2nJvLPpU3cO38LD79dv/WOg14LgGYAREQkY0vqOkxHkH6UllgcN3U4x00dzg3TJ/HEogZmvLFl363/vQTAcrwKYBdjKUVEJHaW1LWbjiAZqiyzOGO/kfzx36dU/9dDi3eDD3YC3JXejwYWERHp1eKNmgGIo8pS66PwwaCv6X8REclKbXPXYO9JFwMqy0v2gQ8KwGRzUUREJK6WaBYgdqrKrD1AMwAiIjIIWgcQP9XlJRNBMwAiIjIIi3UnQOwMqSjZGT4oABMMZhERkZjSDED8DK0sHQsfFIAxBrOIiEhMzV3dajqCZGl4VekIUAEQEZFBWLG5g9X1eT2yVkI2srp0CKgAiIjIID23pMl0BMnC2CFl5QAlluNVA9WG84iISEx5S1UA4mRYZan1nw++O7oEvfsXEZFB+KcKQOxUlpbsrwIgIiKDsr6pi0W1uhsgTirLrGkqACIiMmi6DBAvVeUle6gAiIjIoKkAxEtZiaU1ACIiMnj/WtZEj286hWSqvNQargIgIiKDVt/WzWtrWkzHkAyVlVjDVABERCQv7p2/xXQEyVB5qTVEBUBERPLivvmbSek6QCxsLQBDTAcREZH429ic4ul3G03HkAyUl1rVJUCl6SAiIpIMf3lts+kIkoGKdAGoMB1ERESSYdY7DTS2d5uOIQOoKLUqNQMgIiJ5057qYcabWgwYdZVlJSoAIiKSX395VZcBoq6yzCovQ5cAQreusZPZy5K9S9bG5q5Y/ow9WaxYjuvPmM2q7C2tqVj+jJ2pnoy/tqG9O5Y/Y0cqPqvrX1zRzIrNHUwerfeXUVVZVlJm8fXn3gL2Mx1GRESS46oTd+aqE3Y2HUP68F5DZ0qXAEREJO/+oU2BIq26vKREdwGIiEjenbDXcNMRpB+pHt/SDICIiOTVMVOG8l8n7WI6hvShtbOHL96zTJcAREQkf75w8Bj+cdGeDKkoMR1FetHZ7fOFe5bx8soWS3cBiIjIoE0eXcn1n95VU/8R1t3jc/Ffl/PM4kaAkjI0AyAiIjmy9xjGV47cidOmjaC0xDIdR/rxH/ev4sG36rf+tqTMZBgREYmXyjKLwyYN5ZN7DGX6R0ex97gq05FkAN09Pt9+aDV3z9203R+XAR1AjZlYIiISVRWlFpNGVTB5dCUHfaSGT+4xjMN3G0JVma7vx0VzRzcX/GU5Ty760CmNHWVAJwktADsNLaPE0pSUiEipBVXlJdSUl1Bdkf5cXkJNRQlVZcHn0TWlTB5dmf6oYJfhFWhWP77WNHTy+TuW8tb6tt7+c+fWGYBEWvj9/Skv1d9eEREpLq+taeWcu5ayvqmrry/pSGwBGF5VqsFfRESKzj3zNvGtB1fT1tXvGRnvXwJInNE1Wt8oIiLFo7a5i/+YsYpZCxoy+fLkXgIYM0QFQEREisMDb9XzzQdWsakllem3JPcSwOiaUtMRREREQrW5NcV3Hl7D31/fnO236hKAiIhI3HR2+9z0Qi3XPbOehvbunB4isTMAlVoAKCIiCfTAW/X816PvsWLzoIbv5F4C0JaUIiKSJC+saOaax9by0srmfDxcci8BlKkAiIhIzDV1dPPX1zZz+8t1vN37hj65Su4lAM0AiIhIXM1f28ptL9Vx7/zNtHb2ez9/rjrKgJYwHtm0Um1VLSIiMdLW1cM/3tjCbS/XMW916ENzSxmwacAviyFdAhARkThYVNvObS/X8ZdXN+W6oj8XmxJbAHQJQEREoqg91cOLK1p4dnEjzy5pYv7aVhMxklsAdFqliIhEge/DG+taeXZJE88ubuTFFS20p0K5A7ZmNQAAIABJREFUrp+N5BYAzQCIiIgpq7Z08tzSJp5bErzLz2KL3kJJcAGwVABERCQ8PT6s2tLBwtp2FtW2v/95UW07TR0Fu5afq+QWAF0CEBGRXHX3+GxqTbGxOcXGlhR1zSk2NnexsSXFis0dvFvbzuK6joGO3I2yBBcAbQUsIiJ9OO+eZSyua6e7B7p9n1S3T7cfDPztKZ/6thS+bzplqJJbAHQJQEREelPXkuLhd+qTPsAPZFOJ79ptQF73F4wC7QMgIiK9eXZxY7EP/m2+a7dtvVKeuFkA7QQoIiK9eXpxk+kIpm0CSGwBSPUUd70TEZHePbuk0XQE05JdAJo7YrsyU0REQvLOhjbWNXaZjmHadgVgvcEgoWgJ5/QkERGJsWc0/Q/pMX9rAVhhLkc4YrAJg4iIFNjTi4t++h/SY/7WArDcXI5waAZARES21Z7q4YXlzaZjRMFySPAMQItmAEREZBsvrmiJ8859+bQCEjwD0KwZABER2cbT72r6P227GYDVQKJGTN0FICIiW/k+3P/mFtMxoqCHYMwPCoDv2p3AWpOJ8q2lU5cAREQk8PKqZlbXd5qOEQVr02M+2+6Xl6jLALoEICIiW/39db37T3t/rN+2AKwofI7wNLZrBkBERIKdYWdo+n+rFVt/kdgZgM2tKbq6tR2wiEixe2ZxI5taUqZjREXyZwB8H2qb9X+4iEixu1fT/9tasfUXiZ0BANjQVPT7PYuIFLW2rh4eeafedIwoSf4MAMB6FQARkaI2850GWrUofFsrtv5i2wKwCmgreJQQrdeJTyIiRe3e1zebjhAlbQRjPbBNAfBduwd420SisOgSgIhI8drcmtLhP9t7Oz3WA9vPAAC8UeAwodIlABGR4nXX3E26G2x7243xKgAiIpI4qR6fm16oNR0javotAG8WMEjoVABERIrTA2/W816DxoAdbDfGJ3oGYIMWAYqIFCV39gbTEaKo7xkA37XrgHUFjROi2uYUPbr8IyJSVF5c0cyra1pNx4iadekx/n07zgBAgmYBUj2+LgOIiBSZ383Wtf9efGhs760AJGodwKLadtMRRESkQFZu6dTOf7370Nie6BkAgEW1idrbSERE+nHj87W69Nu7jGYAElYANAMgIlIMmjq6uXvuJtMxoiqjArAASMwxeioAIiLF4Y45dTR3dJuOEUUpgrF9Ox8qAL5rdwILC5GoEBZtVAEQEUm61s4ebvinbv3rw8L02L6d3mYAAF4MOUzBbGxOsaU1MRMaIiLSC3d2LRub9Vrfh17H9L4KwOwQgxTcQl0GEBFJrC2tKf7vX3r3349ex/S+CsDzIQYpOF0GEBFJruu9DTS269p/P3od03stAL5rLwXWhxqngLQQUEQkmdY1dnHTixtNx4iy9ekx/UP6mgGABM0CqACIiCTTdc+so62rZ+AvLF59juX9FYDErANQARARSZ7lmzq4S/f9D6TPsbwoZgDWNHTS2qmGKCKSJD97ah1d3dr2bwA5zQC8BiTiOCXfh/lrE/GjiIgI8Pb6Nu6bv9l0jKhrJRjLe9VnAfBdOwW8HEYiE15a2WI6goiI5MkPZr2nPf8H9nJ6LO9VfzMAkKB1AC+uaDYdQURE8uAfb2zhmcWNpmPEQb9j+EAFIDHrAF5a2YyvtigiEmtNHd1c9cga0zHiot8xfKAC8CKQiNVz9W3d2hFQRCTmfvLEWtY3dZmOEQc9DLCtf78FwHftRmBuPhOZpMsAIiLx9fp7rdyiTX8yNTc9hvdpoBkAgMfyFMa4F1eqAIiIxFGPD//vgVVa+Je5AcfuTArAo3kIEgmaARARiadbX9rIa2t0O3cWBhy7MykAc4BE3Gy5aksn6xp17UhEJE7WN3XxkyfWmo4RJ5sJxu5+DVgAfNfuAZ7IR6Io0CyAiEi8XD1zjU77y84T6bG7X5nMAIDWAYiIiAGPL2zgvvlbTMeIm4zG7EwLwONAIpZevLRCOwKKiMRBbXMXl/9jpekYceMTjNkDyqgA+K69Hnh9MImi4q31bTR3aCpJRCTKfB+++veVbGzucydb6d3r6TF7QJnOAEBCLgN09/g6F0BEJOL+8EItT72r7X5zkPFYXXQFAGDmO/WmI4iISB/eWt/Gfz32nukYcRVKAXgBSEQde+SdBm0mISISQW1dPVz81+V0pPQinYNGgrE6IxkXgPSRgk/lkihqNjR18bLuBhARiZz/nPUeCzbo3JYcPdXf8b87ymYGAOChLL8+sh56W5cBRESi5LGFDdzykvb6H4SsxuhsC8ADQGeW3xNJD72lAiAiEhUbmrq4/D7d8jcInQRjdMayKgC+azeQ4f2FUbe6vpP5a7WvtIiIaakeny//dQV1LbrlbxAeT4/RGct2BgDgbzl8TyQ9qFkAERHjvv/IGv61rMl0jLjLemzOpQA8BCRihYYuA4iImHXX3E3c/KKu+w9SOzms0cu6APiu3URCjgh+d2M7i2oT0WVERGJnzqoWrnxglekYSfBoemzOSi4zAJCgywC6G0BEpPDWNnbxxXuW0dmt+/3zIKcxOdcC8AiQiBV0ugwgIlJY7akevnD3UjY0dZmOkgStBGNy1nIqAL5rtwAzc/neqJm/tpVVWxJxZ6OISCz8v/tX8eqaRLyHjIKZ6TE5a7nOAIAuA4iISJZ+N7uWv7y62XSMJMl5LB5MAZgFJGI/3fvm6y+jiEjYnn63kf98VIf85FEzwVick5wLgO/abcDDuX5/lLy6ppW5q3VEsIhIWOatbuGLf1pGt05iy6eH02NxTgYzAwBw1yC/PzJufL7WdAQRkUR6d2M7n7ljKa2dPaajJM2gxuDBFoAngETcxPngW/Wsa9SKVBGRfHqvoYvpty1hc6u2+c2zVQRjcM4GVQB81+4BbhvMY0RFV7fPbS9rNyoRkXzZ3Jpi+u2LWdOgO61CcFt6DM7ZYGcAAG4HuvPwOMbd/nIdHSldnxIRGazWzh4+e8dS7bYajm6CsXdQBl0AfNdeQ0K2Bq5rSfF33REgIjIoXd0+X/zTMi2uDs+j6bF3UPIxAwBwS54ex7g/aDGgiEjOfB8u+/sKnn630XSUJMvLmJuvAjATWJunxzLqjXVtPL88EdsbiIgU3HceXs1987eYjpFka8nTTrx5KQC+a3cDf8zHY0XBH17QLICISDZ8H7714God7Ru+P6bH3EHL1wwABHcDJGIF3SPvNLC6XqtWRUQy0ePDf9y/ilte0uAfMp883nmXtwLgu/Zy4Kl8PZ5J3T2+WqyISAa6e3y++vcV3PlKnekoxeCp9FibF/mcAQC4Oc+PZ8ydr9TR1qVdq0RE+pLq8bnkbyv462u6e6pA8jrG5rsAPAgk4gJ6fVu3TqwSEelDV7fPhX9ezj/e0IK/AqklGGPzJq8FwHftLuB3+XxMk37zrw10didiWYOISN50pHy+eM8yHaVeWL9Lj7F5k+8ZAIAbgZxPJ4qS5Zs6uEl3BIiIvK+tq4dz7lrKYwsbTEcpJm0EY2te5b0A+K5dB9yZ78c15dpn1rOpRYdYiIg0tHfzmT8u4ZnF2uSnwO5Mj615FcYMAMCvgUSsoGts7+ZnT60zHUNExKhVWzo58feLmK2N0gqth2BMzbtQCoDv2ouBh8J4bBP+OKeOBRt0oIWIFKfX1rRy/I2LdLCPGQ+lx9S8C2sGAOB/Q3zsguru8blq5qDPXRARiZ1ZCxo45eZ3qW3O6/ozyVxoY2loBcB37dnAy2E9fqE9s7iRx7XoRUSKyE0vbOQLdy/VnijmvJweS0MR5gwAwK9CfvyC+sGs90j16LZAEUm2Hh+umrmG7zy8Gr3kGRXqGBp2AbgfyNu2haa9u7GdW7XXtYgkWFtXD+f/aRm/m61boA1bTjCGhibUApA+sej6MJ+j0H7x9Hq2tOq2QBFJng1NXZx+y2Jt8BMN1+fr1L++hD0DAHA7kJi9Ire0pvjF0+tNxxARyauXVjbzid8uZO7qFtNRJBgzbw/7SUIvAL5rtwA3hP08hXTrSxtZvFG3w4hIMtz0wkZOv2Ux65u00j8ibkiPnaEqxAwABAUgMSfrpHp8rp71nukYIiKD0tbVwyV/W8F3Hl5Nl849iYrNFOhNc0EKgO/ajcB1hXiuQnl8YQNPvavtMEUknpZv6uCEGxdx7+uJeW+WFNelx8zQFWoGAMAlIUcFb/WNGSupbwt1jYaISN49vrCBT7oLeWt9Is5tS5JagrGyIApWANLXM35ZqOcrhPcauvjmA6tMxxARyUiPDz9/ah2fv2spDe168xJBvyzEtf+tCjkDAPB7YG2BnzNU/3hji6bQRCTy6lpSfO7OJfzy6XX4utwfRWsJxsiCKWgB8F27HfhZIZ+zEK58cDVr6jtNxxAR6dWTixo54oYFPLlI65Yi7GfpMbJgCj0DAHArkKh588b2br5y7wptmSkikdKe6uE7D6/mM3cs0WE+0baKYGwsqIIXAN+1O4GfFvp5wzZ7eTO//dcG0zFERAB4c10btruQm17Q9uUx8NP02FhQJmYAAO4Alhp67tD89Im1vLxSu2iJiDm+D+7sWo6/cSELNmjDshhYSjAmFpyRAuC7dgr4sYnnDlNnt895f1rGukZNtYlI4a1r7GL67Yu5euYaOlK6JhkTP06PiQVnagYA4E/AfIPPH4oNTV188Z5l+scnIgX10Nv1HPGbBTy7pMl0FMncfIKx0AhjBcB37R7gClPPH6a5q1u0P4CIFMTG5hRf/utyzrtnmU4qjZ8r0mOhESZnAPBd+zlghskMYbln3iYtvhGRUP1p3iYOvf4d7pufmANXi8mM9BhojNECkPZtoMN0iDBcNXMN/1qm6TgRya9lmzo449bFfO2+lXrXH08dBGOfUcYLgO/ay4Ffm84RhlSPzwV/Xs6yTYnsNyJSYKken+u9DRz5mwV4S/XmIsZ+nR77jDJeANJ+Dqw3HSIMdS0pzrxtMWt1Z4CIDMKra1qx3YX86LH3aOsydtlYBm89wZhnXCQKgO/azcBVpnOEZdWWTqbftpjNmqoTkSy1dvbw/UfWcMLvF/HmOp3elwBXpcc84yJRANLuBOaaDhGWhbXtfOaOpbR0qrmLSGZmvLGFQ69/hxufr6Vbe40nwVyCsS4SLD9Cx0JZjnc0MNt0jjAdt+cw7r1gTyrLLNNRRCSi5q9t5XsPr+GFFZF4oyj5c4zv2s+bDrFVpAoAgOV4fwHONZ0jTGfuN5I7vzCF0hKVABH5wMbmFD95Yi13z63T4WLJ81fftf/ddIhtRekSwFbfA1pNhwjTQ2/Xc/k/VmpKT0SAYBvx//vXBg781dvc+YoG/wRqJRjbIiVyMwAAluN9G/gf0znCdsZ+I7n93Cm6HCBSxB5d0MDVs9awtE63CyfYd3zX/pXpEDuK4gwAwPXAPNMhwvbw2/V89o4lWhgoUoQW1rYz/fYlnHPXUg3+yTaPYEyLnEjOAABYjncg8ApQZjpL2A6eWMOMi/ZkdE3if1SRorewtp3/eXY9/5i/WVP9yZcCPu679uumg/QmsgUAwHK8XxLB6yZh2GdcFQ9cPJVdhpebjiIiIXh7fRvXPbOeB9/aooG/eFzru/b3TYfoS9QLQBXwBjDVdJZCmDSqgocunsruYypNRxGRPJm/tpXrnlnPI+/UE+GXW8m/xcABvmu3mw7Sl0gXAADL8Y4FngGKYqXcmCFl3PmFKXxy92Gmo4jIILy6ppVrn1nHowsaTEeRwvOB402f9jeQyBcAAMvxbgEuMZ2jUMpKLH522kf42tHjTEcRkSzNWdXCtc+s48lFjaajiDm3+q59qekQA4lLARgJvAPsbDpLIZ170Gh+c9YkqsujerOGiGz1wopmrn16Hc8u0Sl9RW4dsK/v2vWmgwwkFgUAwHK8s4F/mM5RaB/bpYa/fGl3Jo6sMB1FRHrxz2VNXPv0ev61TAO/APAZ37VnmA6RidgUAADL8WYAZ5nOUWhjh5Rxh9YFiETKs4sb+eUz63lR+/XLB+73Xfts0yEyFbe55cuBOtMhCq2uJcX025Zwwz836PYhEcOeXNTICb9fxKdvX6LBX7ZVRzBGxUasZgAALMc7E3jQdA5TDt9tCH/47GT2GKtbBUUKadaCBq59Zh2vrUn0USWSu0/7rv2Q6RDZiF0BALAc7w/AZaZzmFJdXsKPT9mFy44ch1UUN0eKmFHf1s29r2/m9pfreGdDm+k4El03+a79VdMhshXXAlADvArsbTqLSZ/YfRg3fnY3dhulBYIi+fT88mbueKWOB9+spz2lszqkX4uAg33Xjt3UUCwLAIDleAcDLwFFvXfukIoSfnbaRL58+FjTUURibWNzij+/uok7X6ljiQ7nkcx0AUf4rv2q6SC5iG0BALAc77vAtaZzRMFxew7jujN2Ze9xVaajiMRGjx+s5r/zlTpmLmigqzu+r4dixPd8177OdIhcxb0AlABPAceZzhIFZSUWXz58LFefuLNOFhTpx3sNXdwzr467XtnE6vpO03Eknp4FTvRdO7bXiGJdAAAsx5tIcGDQKNNZomJkdSnfP2FnLj1iJ8pLtUpQBCDV4/P4wkbueKWOp95tpFv31EruthAc9LPGdJDBiH0BALAc73PAvaZzRM2eYyv52WkTOXXaCNNRRIxZsbmDO1/ZxJ/mbWJ9U5fpOJIMn/dd+++mQwxWIgoAgOV4fwQuNJ0jio7bcxg/P30i+02oNh1FpCA6Uj4Pv13PXa/U4S1r0jG8kk93+K59kekQ+ZCkAjAUmANMM50liiwLPrXvSK60x3PIrkNMxxEJxZvr2vjzq5v4y6ub2dyaMh1HkmcBcJjv2onYAjIxBQDAcry9CUrAcNNZoszeYxhXHjuB4/bU2QISb13dPrOXNzNrQT2z3mnQgj4JUyPB4L/IdJB8SVQBALAcbzowA9DqtwEcNLGGK+0JnLHfSEr0v5bERH1bN08uamDWggaeWNRIU0e36UiSfD5wtu/aD5gOkk+JKwAAluP9HLjKdI64mLpTFVd8cjznHDSaCt01IBG0YnMHsxY0MOudBl5Y0UxKK/ilsH7hu/bVpkPkW1ILQAnwKHCS6SxxMnZIGeccNJrzDhmjBYNiVI8P81a3BIP+gnoWbGg3HUmK1xPAqXG+378viSwAAJbjjQHmAbuZzhJHB36khvMOGcPnDxzNyOpS03GkCLR19fDskiZmvVPPYwsbqW3WLXti3ErgEN+1N5kOEobEFgB4/7yA5wHtj5ujyjKL0/cdyXmHjOH4qcO1VkDyakNTF48tDK7nP7ekibauxL3JkvhqB46O6z7/mUh0AQCwHO9C4I+mcyTBLsPLOeeg0Xxq35EcsusQlQHJWkfK5/X3WvnnsiYeXdDAvDUtukdfouoi37XvMB0iTIkvAACW490IfM10jiQZO6SMk/YewSnTRnDC1GEMq9RlAvmwNQ2dzFnZwpxVwccba1vp1IE7En2/9137ctMhwlYsBaACeA440nCURCovtTh68lBOmTaCU/YZwe5jKk1HEgM6Uj7z17YGg/3KZuasamFto67jS+y8CBzru3biN5UoigIAYDneeOAlYLLhKIk3dacqTtp7OEdNHsrhuw1h3NBy05EkBGsbu5izqoWX04P9G2tb6UgVx+uJJNYK4AjftTeYDlIIRVMAACzHmwa8AIw0naWYTBlTyRG7DeHwSUM5YvIQ9hlXrfUDMdPZ7fPG1nf3q1qYs7KFNQ2Jf4MkxaUeOMp37QWmgxRKURUAAMvxjgMeB/S21JDhVaUcNmkIh+82hCN2G8rBE2u0hiBCOrt9VmzuYMGG9vSA38zr7+ndvSRaF3Cy79rPmg5SSEVXAAAsxzsfuNN0DvnAriMr2G9CNR/duZp9x1ez34Rqpu5USZmmCkKxdZBftqmDpXXB5yWbOlhW187q+k600Z4UmQt8177LdIhCK8oCAGA53jXAj0znkL5VlFrsPa6KfScEhWC/8dXsObaSXUdVqBhkYOsgv3WAX7r1o66dNRrkRbb6se/a15gOYULRFgAAy/HuAr5kOodkp7TE4iMjypk8qpLJoyvYbXQlU0ZXstuoCiaPrmSnoWWmIxZMR2qbd/Kbtr6jb2fppg4N8iIDu9t37fNNhzCleF4pe3cJsCtwrOEckoXuHp9VWzpZtaWTfy778H+vqShh8qhKxg8vZ+yQMsYOKWNMTfB57NDtfz+qpsz4gsQeH5o6uqlv66a+LZX+3E1D+we/b2jrZktbKv1n3e//WV1LlwZ5kdw8RzAGFK2ingEAsBxvJMGdAdNMZ5HCK7FgVE0ZwypLKS+1KC+xKC+1KC1hu9+XbfPr8lKLsh1+ve3vy0vSX5/+dWtXT3rATm0zsKcH9LZuGju6tRueSGEtIFjxX286iElFXwAALMebQrBHwDjTWUREJFS1BPf6LzcdxLQS0wGiIP0X4TSg0XQWEREJTSNwmgb/gApAmu/a84DTgVbTWUREJO9agdPTr/WCCsB2fNeeDUwHOkxnERGRvOkApqdf4yVNBWAHvms/CZwDpExnERGRQUsB56Rf22UbKgC98F37QeB8oMd0FhERyVkPcH76NV12oALQB9+1/wJcBug2CRGR+PGBy9Kv5dILFYB++K59K3Cl6RwiIpK1K9Ov4dIHFYAB+K59A/BD0zlERCRjP0y/dks/tBFQhizHuxb4rukcIiLSr+t81/6e6RBxoBmADKX/Ql1nOoeIiPRJg38WVACykP6LpcsBIiLR80MN/tnRJYAcWI53BfBrQIfSi4iY5RMs+NM1/yypAOTIcrxLgJvQLIqIiCk9BLf6abV/DlQABsFyvH8H7gLKTGcRESkyKYJNfnSff45UAAbJcrxPA38DKk1nEREpEh0E2/tqh79BUAHIA8vx/g14AKgxnUVEJOFaCQ720d7+g6QCkCeW4x0DzASGm84iIpJQjQRH+upUvzzQArY8Sf+FPB6oNZ1FRCSBaoHjNfjnjwpAHvmuPQ84AlhgOouISIIsAI5Iv8ZKnqgA5Jnv2suBo4DnDEcREUmC54Cj0q+tkkcqACHwXbseOBm423QWEZEYuxs4Of2aKnmmRYAhsxzvGuBHpnOIiMTMj33XvsZ0iCRTASgAy/HOB24Fyk1nERGJuC7gEt+17zIdJOlUAArEcrzjgBnASNNZREQiqh4423ftZ00HKQYqAAVkOd40YBYw2XAUEZGoWQGc5ru27qIqEC0CLKD0X+wjgBdNZxERiZAXCW7z0+BfQCoABea79gbgWOD3hqOIiETB74Fj06+NUkC6BGCQ5XgXEvzlrzIcRUSk0NqBr/mufYfpIMVKBcAwy/EOJlgcuJvpLCIiBbKSYLHfq6aDFDNdAjAs/Q/gEOAJ01lERArgCeAQDf7mqQBEgO/am4BTgV8AmpIRkSTyCV7jTk2/5olhugQQMZbjTQfuRMcKi0hyNAIX+K79gOkg8gEVgAiyHG9v4H5gmuksIiKDtAA4y3ftRaaDyPZ0CSCC0v9QDgPuMBxFRGQw7gAO0+AfTZoBiDjL8T4H3ASMMp1FRCRDW4DLfNf+u+kg0jcVgBiwHG8icBdwnOksIiIDeBY433ftNaaDSP90CSAG0v+QTgS+R3BSlohI1HQRvEadqME/HjQDEDPpjYP+DOxtOouISNoi4Au6tz9eNAMQM+l/YAcTrAsQETHtJuBgDf7xoxmAGLMc70zgNmCs6SwiUnTqgIt9137IdBDJjWYAYiz9D29/gj0DREQK5X5gfw3+8aYZgISwHO9swAV2Np1FRBJrHeD4rj3DdBAZPM0AJET6H+S+wK3oPAERyS+f4LVlXw3+yaEZgASyHO9Y4GZgquEoIhJ/i4Gv+K79nOkgkl+aAUig9D/UA4BrgZTZNCISUymC15ADNPgnk2YAEs5yvAMJpu4OMZ1FRGJjHnCJ79qvmw4i4dEMQMKl/wEfDnwHaDUcR0SirZXgteJwDf7JpxmAImI53iSCKb1zTWcRkcj5K/A937VXmQ4ihaECUIQsxzsauAE41HQWETFuLnCF79rPmw4ihaVLAEUo/Q/9MOAiYL3hOCJixnqC14DDNPgXJ80AFDnL8YYCVwNXApWG44hI+DqAXwM/91272XQYMUcFQACwHG8K8CvgbNNZRCQ0M4Bv+6693HQQMU8FQLaT3kToBuBjhqOISP7MJ7jO/5zpIBIdWgMg20m/QBwMnA8sNZtGRAZpKcG/5YM1+MuONAMgfbIcrwy4EPghMMlsGhHJwirgp8AdvmtrN1DplQqADMhyvArgEuAHwC6G44hI39YCPwNu9V2703QYiTYVAMmY5XhVwNeA7wPjDMcRkQ/UAr8Efu+7drvpMBIPKgCSNcvxhgAO8F1gtOE4IsVsM3Ad4Pqu3WI6jMSLCoDkzHK84cAV6Y9RhuOIFJMtBHfr3OC7dqPpMBJPKgAyaOkZgS8TFIHdDccRSbLlwPXA7XrHL4OlAiB5YzleKXAW8G2CEwhFJD9eJtio637ftbtNh5FkUAGQUFiOdwzwLeBMtN+ESC56gIeA//Vde7bpMJI8KgASKsvxphKcM3ABUG04jkgctAF3Ar/2XXux6TCSXCoAUhCW440FLge+jm4hFOlNLfA74EbftetMh5HkUwGQgrIcrxz4NPAV4ETAMptIxCgfeAq4GXjQd+0uw3mkiKgAiDHpEwgvJjiTXDsMSjFZC/wRuE0n84kpKgBiXPrugdOBS4FTgVKziURC0Q08CtwCzNRqfjFNBUAixXK8iQR7ClyMDiCSZFgF3EZw7/4a02FEtlIBkEiyHK8EOIngKNMzgKFmE4lkpRl4GLgLeMJ37R7DeUQ+RAVAIs9yvGrgNOAcgksFNWYTifSqFZgJ/A2Y5bt2m+E8Iv1SAZBYSW87/CmCMnAqUGU2kRS5doLr+n8DHtH2vBInKgASW5bjDSPYafAc4GSgwmwiKRKdwOMEg/5Dvms3Gc4jkhMVAEkEy/FGANPnn3byAAABrUlEQVQJCsGJwHCziSRhGgnu138IeMB37QbDeUQGTQVAEsdyvDLgKOCU9MeBaMMhyY4PvA48lv54wXftlNlIIvmlAiCJZzneBIJLBKcQ3Fkw2mwiiajNwBMEA/7jvmuvN5xHJFQqAFJU0rcXHkawgPAU4FB0WmGx6gHmEgz4jwJzdLueFBMVAClqluMNB44EjgaOAQ5HtxkmVSvwMjAbeB540XftRrORRMxRARDZRnr9wEF8UAiOBiYYDSW5Wk8w0G8d8F/TdXyRD6gAiAzAcrw9+KAQHAnsA5QZDSU7SgELgRdJD/i+ay81G0kk2lQARLJkOV4FMA04IP2xf/rzziZzFZF1wBvAm+nPbwALfNfuNJpKJGZUAETyxHK8sWxfCA4A9gOqTeaKsTbgbT4Y5N8E3vBdu85oKpGEUAEQCVH6roNJwGRgSi+fd6F470LoAdYCy4EVvXxepVX5IuFRARAxKH05YVc+XA4mAGO2+YjbLEIbsGmbj/V8eJBfrWl7EXNUAERiIH0i4pgBPoYAlQRnIlRm+GuADoL97Tsy/HUL2w/uH/rQSXgi0ff/AbQW0hxsrYR9AAAAAElFTkSuQmCC;movable=0;resizable=0;rotatable=0;deletable=0;editable=0;locked=1;connectable=0;" vertex="1" parent="1">
          <mxGeometry x="-1140" y="317.5" width="42" height="42" as="geometry" />
        </mxCell>
        <mxCell id="C9zYjv5VxLuAIvRQ-mTP-18" value="rosbag" style="outlineConnect=0;dashed=0;verticalLabelPosition=bottom;verticalAlign=top;align=center;html=1;shape=mxgraph.aws3.ec2_compute_container;fillColor=#F58534;gradientColor=none;movable=1;resizable=1;rotatable=1;deletable=1;editable=1;locked=0;connectable=1;" vertex="1" parent="1">
          <mxGeometry x="-1100" y="590" width="60" height="34.5" as="geometry" />
        </mxCell>
        <mxCell id="we7WmdxZvCQZfko0I5lv-2" value="Client Applications" style="text;html=1;align=left;verticalAlign=middle;whiteSpace=wrap;rounded=0;fontFamily=Helvetica;fontSize=11;fontColor=default;labelBackgroundColor=default;" vertex="1" parent="1">
          <mxGeometry x="-800" y="80" width="110" height="30" as="geometry" />
        </mxCell>
        <mxCell id="we7WmdxZvCQZfko0I5lv-3" value="" style="group" connectable="0" vertex="1" parent="1">
          <mxGeometry x="-800" y="120" width="150" height="160" as="geometry" />
        </mxCell>
        <mxCell id="we7WmdxZvCQZfko0I5lv-4" value="" style="rounded=1;whiteSpace=wrap;html=1;fontFamily=Helvetica;fontSize=11;fontColor=default;labelBackgroundColor=default;" vertex="1" parent="we7WmdxZvCQZfko0I5lv-3">
          <mxGeometry y="-15" width="150" height="175" as="geometry" />
        </mxCell>
        <mxCell id="we7WmdxZvCQZfko0I5lv-15" value="RDP" style="shape=image;verticalLabelPosition=bottom;labelBackgroundColor=default;verticalAlign=top;aspect=fixed;imageAspect=0;image=data:image/png,iVBORw0KGgoAAAANSUhEUgAAAgAAAAIABAMAAAAGVsnJAAAAG1BMVEVHcEzSRyb////YXD/on4788e7gfmf329Twv7OTJwGSAAAAAXRSTlMAQObYZgAADINJREFUeNrt3Utb20YUBuD+BT8SwtsaX7Q1xpCtRC5sbSCwlQMkW0zTsrVLQ392SfsUY8/tnNFInpG/s8eJXx/NnLnql18QCAQCgUAgEAgEAoFAIBAIBAKBQOxktHYkAAAAAAAAAAAAAAAAAAAAAAAAAAAAAAAAAAAAAAAAAAAAAAAAAAAAAAAAAAAAAAAAAAAAAAAAAAAAAAAAAAAAAAAAAAAAAAAAAAAAAAAAAAAAAAAAAAAAAAAAAAAAAAAAAAAAAAAAAAAAAAAAAAAAAAAAAAAAAAAAAAAAAAAAAAAAAAAAAACAZgJ8+97xLa5+1AjwteNj/F4bQNzxM7K6AJaeAqQ1ASQdX6OoB2DPW4BJPQAzbwH69QAsvQVI6wGYegvQqweg428AAAAAAAAAAAAAAAAAAAAAAAAAAAAAAAAAAABA5QBbXd0GAAAAAAAAAAAAAAAAAAAAAAAAAAAAAAAAAAAAAAAAAAAAAAAAAAAAAAAAAAAAAAAAAAAAAAAAAAAAAAAAAAAAAM0DuDl7/r7TAD8jujub7zTAzzj+NN1tgJc8+DbdbYB/CXYboNVKdh2gBQAAAAAAAAAAAAAAgIYDjH5OA1xOe5dXj08fR7sGcHy2cbf/1dOXHQI4+kt2dcb16Y4AyL/+z0hPdwAgedZdoPJYNB3g21R/hUzvR6MBog/mW3Quhs0FSJaUe4TSoqkA8ZR2k1IvaybAEfH7vwicNhHgiHOd1mnzAOi/Pz8HQgCIWd+f2Q4EAJAwv/+LQNEkgGjOv1VvMGwQQG5zr2C3OQAn0hx/fH83GrVao9Hd+2fpE/LQFADZe90eP65leHQjGyNlzQCQNAC/SWY/jj9ZNwOeA9wKMx+KyZ9jYaLgcxMA2owBrzBYXoQPsPkADLT9ezK3eQi8BrjljfY3Zww+hw6w8WLHC/NffOD3BD4DrJdApFeqfmWXQx4DtG0a9VtuO+gxwJyZ/5KnYBAywFoNnJJHN9GSVxF7C7DWBTJGd9w/9BbgxHqmc23+5CFUgLXf8cHezpgCvgLsWw3uJf3nfaAAc2oBbCqKB2ECvK0B/uT/+Tt6LeApQF7iAeD9vZ8Asd0Mr3wmOQsQYLb69HO7TxivPqEfHkA0tSqBFN1obxgcwL51CSAtBu6DA1hyRjPmjjQNDSChlzG0NCoCAxi7SIC3KXAeGMC8fAuwngKDsADi0l2A0BFkQQEcWtcAiepROggKYG5dBC4zRTk4CAkgJpZwsr/sqgrKLCCAQ/YC75sRUKawPAgIYEmqXxSp02V/lncAiXUfmIs1z9hcC3kHsEeq35Rtx3q7Eb1+2CQYgNx2IiSXsZk/zTeA1Uj43u7R6curQeWY2DeAmDaK18yhFHLPLBCAseUTkCiqh9zUEfoGkFs+ATPF4HffBOoZwKrZHlomwMZCuvEDPQOILaugNwmwMYRaGhoBzwD27AaCbxNgo/UcGyoBzwByu3HArTIBVjnVDQLg/6Fwj5cA0456EnyqHxL7BZDYjYQ1CaAqEDwFaFt1gpEuAVbNyn0AAIdWA6GxdjNZoi+F/ALIbZqAtQSQyE21raBfAFObOnhs2E2oV3UAUDYWYrZOLBNA+ujsaZ8rDwAysc/OLBOgr60uM08BhuJvNXSYAKvhwMRPgJ7YZXOWBE9MCbCqrvp+AqRic8Uog9b2Exb6kVLXT4Cu2AlMnCbA65PV8xPgQHxYF04TYFVfDr0EmIjNNb0OJG0oTXTdwPYBFsIv1bNLgMxYXy28BMiEZzV1mwCrWaGJlwCFMBSidwK0BHjtBg68BBgKveCB4wR4le36CNATM5U8GbAkHpHb1zxbWwcYiG0VdSTQlpdT6tFAz0eAVCwDCosEWJBm2oYeAnRJ/81SCaCl3TpAX0hU5VAofqAuBqh6i8xDgAPhF1X+mvmAuhykelgWHgL8KrTVXXVTdm+ZArm6f9k6wEQoBPvqb6FJgQfK0uHEDcDUJcC9UK4caPqyhTIFtNtqNR9tAzB3CbAQ/pcTTRqndimw5xZgWc1YaKYtBGNZMxYTU2Bf/XTZAMyqAci1Nc1M2kXktBRoq9tXG4C9agEybTFnlQKxW4CkmtHwUgcwU9R8tGPCsbrEsAFw2giIAIXeXJMCxp/MFUBcyXTAXAMwUw78SSmQqImsADYua3EMMGSN/GPKkChyDWC85NkGYKoBeNchpcDCANBzBlA6mACa2T/KqNhngBYNQDP9R5gXCQNAv+GiXAo0AOCkVAqoPzsYgJZ6FZCQAk0A0KwDm6fHw+8FtAvBxgWSBvQC+hQwLZFFTcgA3W4gUwqEATA3LQuMrVPAfSlcJYByYUizJXRfv1Mm8RiANhwWU+CzsoW8r344XC2Aem1UkwIn2lmBOAiA3Lw4TEmB++qnxJwCUCdF/0tl9cmAE93MYDsIgBlhf4T6bMj/KfBQw7S4UwDywogpBcaaqWHHCyNOAchLY8YUmKoXBw6DADAtjlJSQLE24Hhx1CnAr8KDqj8uMtOmgGKbgOPlcacAjA0SwqqMkAKqXQKON0g4BWBskRFT4GEjBc4NkymZ1wDETVKaTQFfh/o5UVebpJwCsLfJ6Y9J6s2GXgMQN0qaTslpKmFXGyWdAnC3ypqOSeoKwdRHAO5maYsEcL5Z2i1AIfw/+8QEIO+pdb1d3i1AJpSCKTEByOcKXB+YcAuwECohzZEZ0iEpIVwfmXELMBEaa803O7FJAOeHptwCcI7N2SWA82NzbgH6YsU6cZoAr22LtMbePkAqNlbK70Y8JKXoBFI/AQbi/3RASADGHQvOD0+7BWAcn7dLAPfH5x0DFGI3kGkrWmYCuL9AwTHAQuyvJtp6hnnHxNj5FRqOASZixdJ1mAAVXKLiGKBP/L9aJsBry9H1FaArDttk2Uo/JaeoAw98Aojke5x1V2mRj0mqnpyFTwCxfLdson7GbRNgtZW28AlgX35m4vV5HThLANMNfVsCOJQfHFNfqGidAFVcqOgglvLDo+orNXPbBKjiSs3ykahuElJdqhrbJkAll6qWj7HqDgXVLbi0o0Ha7mboE8BSdW5IdbFyTjkZpG1tXV6sXDraytOjqqu1Y8sEWMmd+wSQK4/QKy9XX5LOCItPwNRUPG8DINZcJ6a6Xr9NOiWufgKcXq9ftgxeam6SUb4SYWmTABW9YKFk3OpOT745lzuUpQAvASp6xUa5eKe9ROBNiXAuSQFmAlT0kpVS+f9Nf5OK+tU4bX4CVPWaHcbXvTt7/uPSfMgylQ4TMuHbMN+7UdWLlqhx80w+X1rI/td9IQWYb1+bEWaQqgO44dy0sZBNfm/83tGSmQCVvWyN9I//ZXmbkOZ1e/vMBKjsdXuEOGIerk6lT+5mm89LgOpeuGjX1ZEbAf9fucmvdTnXCQXw0lV642Nzp1oAr93lDvaY9yr6/+Jl5mife52O/6/e5k33EONcOor38+XrzltAIU9n1IsCKbOO+r007gFsL9oayptB9rt3hXY4qxnA9q65e0U72i3ZDhv+3jmA9T1bXVVDuijXDi9qBmjbAqzPAM3ZhwLe/ghz+iy6cwDjVXPX7+9G5q9kux2EvYziHOBQ//Ufv1g0Jcxi4IR602YlANpOID21+ha9jNUPTzl2dQL0fthVMrxyiPmHNQJcF9aJ3EnJAuurDuaHpzYA1s8vFhQX1L/60Ol0OGOpmhrB3hO/pl/vUInng26VU421FULfN7/85R9/f7Qa0uR8ga/q2qq+0WAUjYYvUX5afWNYdcHMf9p2ym1tlLTI586FATXa+P6knPEaINoYWA0KagFM7zu9BhAGFrquRLjmlDaI8htAXEq/VpTSx8JCDLHb8BwgEmcXfpMQHH8SZ1mHjQCQTrA9rveq0c2zYZI1ZID1ivi1LXh8GVOPXr776O69fAmaPID0HsBqlYExheA/QGQxycgYPfoPYLHSxplJDgBgfYaD8v058ychADB3G/ROW00DaB1xAFjfPxAARg7wfv9gAMjtwCBrNROglZAWndOi1VQAYbQvC9OMQdAA5vd68OddAwNoJc/aRaei1XSAl95Auf/y+tTuEwMDUBHYfv0AAVqt47ONmferpy/2nxYgwEuMbs6ev19Oe5dXj08fR6U+KkwAhwEAAAAAAAAAAAAAAAAAAAAAAAAAAAAAAAAAAAAAAAAAAAAAAAAAAAAAAAAAAAAAAAAAAAAAAAAAAAAAAAAAAAAAAAAAAAAAAAAAAAAAAAAAAAAAAAAAAAAAAAAAAADNBEAgEAgEAoFAIBAIBAKBQCAQCAQC0ej4Bw7ZV1fMmurtAAAAAElFTkSuQmCC;" vertex="1" parent="we7WmdxZvCQZfko0I5lv-3">
          <mxGeometry width="50" height="50" as="geometry" />
        </mxCell>
        <mxCell id="we7WmdxZvCQZfko0I5lv-16" value="WebUI Olivetin&#xa;go1-pc.local:1337/" style="shape=image;verticalLabelPosition=bottom;labelBackgroundColor=default;verticalAlign=top;aspect=fixed;imageAspect=0;image=data:image/png,iVBORw0KGgoAAAANSUhEUgAAAXoAAAF6CAYAAAAXoJOQAAAACXBIWXMAAA7DAAAOwwHHb6hkAAAAGXRFWHRTb2Z0d2FyZQB3d3cuaW5rc2NhcGUub3Jnm+48GgAAIABJREFUeJzt3Xd8HPWd//HXale9d1susmXZWDbuxoUYg8E2EFNSIIGQQiDt+HFJCLkkcMklgdylPHLJpRAuhEujXYDQmzHGgCG44F7kIlmWkGQVS7JWXdry+2NkAWdJlnZnd3ZH7+fjMQ+ttDvf+cjWvjX6zne+XxARERERERERERERESs4rC5AJEiJQAKQAsQCGYATSO9/3tH/taH2G0zLIF/rBrr6H/cAnf1bD+AGvEPsJ2I5Bb1YLQ/I7d+yMUI5AyOoMwb5PB1IA+KAZAvqPRsvRvCf/gVwqn9rxfhF8P7PTz9uAk4ADRi/UERMpaCXUHABBcDk/m18/3Y61N//2GVRjZGqDagFGjGC/0T/4zqgGjgOvIvxS0RkRBT0EggXMBWYDhQBk/q3yUAhRpA7LatubGjFCPzj/R/fBaqAo/2bupFkgIJehjMJmIER6NOBc/o/TsXoD5fI1YgR+If7Px5530d1D40xCnoBo797OrCof5sFzAdyrCxKQuYEsKN/OwAc7N/8VhYloaOgH3tSgPOA5cBCYB5G90uMlUWJ5U4Be4E9wFZgC1BuaUViGgW9/RUAHwJWYJytn4dxBi9yNq3AduAtjLP/N1Hff1RS0NtPMbC6f7sIY8iiiBm8wC7glf7tLdTfHxUU9NEvB1iFEexrMC6UioRDF0bYnw7+XYDP0opkUAr66DQJ+BhwBcZZu8aiSyRoAl4AHgNeAvqsLUdOU9BHj2Lg48A1GH3t+r+TSNYEPA38HdiIcaewWERhEdlSgU8BX8QId5FodAp4GLgPY1SPhJmCPjItAr6EEfIpFtciYqYdGIH/MNBucS0iYecEPgvsxLhxRZs2O2+twG8xps0Qsb0Y4FrgENa/+bRpC/fWC/wV46Y9Eds5HfClWP9m06bN6q0H+D0wERGbmIfRV2n1m0ubtkjbuoDvoCHDEsVcwLcxzl6sfkNp0xbJ226MifXEBJozPHzmAM9hXHDVv7vI8MYBN2OsIvY6uuM2KBpeGR7/DPwnmsNdJBD/wLgTvN7qQqKVgj60nMAvgK9aXYhIlKsGrsTo0pFRUtCHTgzwIHC91YXYjcvlIjk5mYSEBBISEkhKSiI2NpbU1FRiYmLIyMggJiaG1NTUgX2cTicpKWfee5aYmEh8fDwAra2t+P3+Dzzf29tLV1fXwOd9fX10dnbS3d1Nd3c3nZ2d9PX14Xa78Xq9uN1uPB4PHR0dIfrux7RmjAn89lpdSLRR0IeGA/hvjLtbZQixsbFkZ2eTk5NDXl4eOTk5ZGdnk56eTlpa2sB2+vP09HRSU1NJTk62uvSz8ng8uN3uga21tZXW1taBx6e/XldXR1NTE01NTdTX19PerptFz6IeWImxJKKMkII+NP4V+JHVRVgpJyeHgoICCgoKmDhxIhMmTGDcuHHk5eWRnZ1Nbm4umZmZVpcZcXp6emhqahr4BdDQ0EBtbS3V1dXU1NRQW1tLbW0tvb29VpdqpeMYq6NpEZQRUtCbbwWwCZuPA46Li2Pq1KkUFRUxdepUpk2bxsSJEweC/XR3iJjP7/fT0NAwEPyVlZWUl5dTUVFBeXk5J0+etLrEcPg7xkyuMgIKenOlYiy2PMnqQsySlpbGrFmzKCkpobi4eCDYJ06cSEyMlpmNRG63m4qKCo4dO8axY8c4fPgwBw4coLKyEp/PVqMUvwjcb3UR0UBBb67vAXdZXUQgYmJiKCoqYtasWQPBXlJSwsSJuiPdLjo7Ozl8+DAHDx7k4MGDlJaWcuDAAdra2qwuLVD1wDRAV77PQkFvngzgGBAVHc8pKSmUlJSwZMkSlixZwuLFiwf6zMvLy9m2bRv79++nqqqKqqoqGhoaAOMCam5uLpMnT2bp0qWsXbuWoiLNRxXNKisr2bZtG3v37mX79u3s378/ms78/xX4D6uLiHQKevP8APi+1UUMJS8vjxUrVrBixQoWLVpEcXExDofx39/d3c2mTZt44YUXeOONN2hsbBxxuzExMXz4wx/m7rvvJj8/P1TlSxi53W527NjB1q1b2bx5M3v37sXr9Vpd1lBagAK0SPmwFPTmKQVmWl3EaYmJiSxevJiVK1dywQUXMGfOnIFgP+3w4cPcf//9PPnkk3R2dn7guenTp7Nw4UKKioooLCwcONs/fSGwvLycTZs2sXevMaQ5Pz+fRx99lOnTp4fnG5Sw6ejoYOfOnbzxxhts3ryZffv2nXG/gcWuAJ63uohIpqA3x3QiYFxvRkYGq1ev5sorr+TCCy8kLi5u0NeVlpby05/+lA0bNgy8YdPS0li9ejWXXXYZy5YtIycnZ0THfOutt/ja175GbW0txcXFvPzyyyQkJJj2PUnkeffdd1m/fj3PPvss77zzTiSE/v0YF2ZlCAp6c9wO/NyKA2dkZHD11Vezbt06li1bhss19KjO5uZmfvzjH/PII48M9MEuXbqUL37xi6xZs4bY2MCm4qmqqmLt2rW43W7uvvtubr755oDakehTU1PDCy+8wDPPPMOOHTusKqMeYxI0GYKC3hz3Y8y0FzZz587l05/+NB//+MdJTEw86+t37drFjTfeOND/vnTpUu644w6WLFliSj2/+MUv+PnPf87s2bPZsGGDKW1KdCkrK+Nvf/sbDz/8MC0tYb+XKRNjEXIZhILeHM8DHw71QeLi4vjUpz7FTTfdRHFx8Yj36+rqYvny5TQ0NFBQUMAPfvADrrjiClNrKysrY+XKlTgcDg4cOEBGRoap7Uv06O7u5umnn+aee+6hrKwsXIc9F+MeFhmEre/eDKOQ3iAVGxvL9ddfz1e/+lUKCgpGvf/WrVtpaGggMzOT9evXk52dbXqNRUVFxMfH09PTQ1VVlYJ+DEtISOCTn/wk11xzDU899RS//OUvOXbsWKgPW4SCfki6tdEcc0LZ+OlumkBCHhgI9ra2Nh5++OGQzKwYExMz0McfwUPxJIycTieXX3451113HU5nyNfa+adQHyCaqevGHD5C/G/pcDi49NJLuf3225k9e/ao9//85z/P+vXrAeOMa8WKFVxyySWsXr2aCRMmBF1fZWUly5cvx+FwsHPnTo2pH+M6Ozv5y1/+wr333huuuXceB64Nx4GikYLeHCEP+tMcDgfLli3jhhtuYN26dSOePKyvr48HHniA3/zmN9TXf3ChnpKSEtasWcPatWuZP3/+qOew8fl83HLLLTzzzDOce+65vPzyy6PaX+zj0KFDPPjggzz++OO43e5wHvovwI3hPGA0UdCbI2xB/36ZmZlce+21fOITn2DWrFkj2qevr4+tW7eyceNGNmzYcEbfaW5uLqtXr2bNmjUsX76c9PT0Yds7cuQId999Nxs3bgTgoYceYtWqVYF9QxKV3G43L774Ig899BDvvPOOVWXcC9xi1cEjnYLeHJYE/ftNmjSJtWvXcuWVV3LeeeedcRfsUCoqKnj55Zd55ZVX2Lp1Kx6PZ+A5h8PB1KlTWbhwIeeccw7jx4/H6XRy4sQJKisr2bJlC4cPHx547V133aUx9GPEqVOn2LBhA8899xyvvfYafX19Vpd0D3Cr1UVEKgW9ObxE0IXtgoICLr30Ui688EKWL1/+gSX1htPa2sqmTZtYv349r7/+OqdOjWxY8pIlS/jud7/L4sWLgylbIpjf76e0tJQ33niDjRs3smXLlki76K6gH4aC3hwRFfTv53Q6mT17NhdccAErV65k2bJlI7oD1u/3c+zYMXbt2sXu3bs5fvz4wEW1jIwMJk+eTElJCZdccgmTJ08O9bchFmhsbGTLli1s3ryZV155hbq6OqtLGo6CfhgKenNEbND/X0lJScyePZu5c+cyd+5cli9frjnnBY/HQ3l5Odu3bx+Ysvjo0aORMI/NSCnoh6GgN0fUBP1gJk2axKJFi5g3bx6zZ89m1qxZZGVlWV2WhEhfXx9lZWUcPHiQ/fv3s3PnTvbu3UtPT4/VpQVDQT8MBb05ojroB5Ofn09JSQmzZs1i9uzZzJw5k2nTpg05I6ZEpvr6+oFVpUpLSzl48CBHjhyJhIunZlPQD0NBbw7bBf1Q8vPzmTFjBoWFhRQWFjJ58mRmzJjBtGnThp05U0LH7XZz/PhxKisrqaqqorKyksOHD3Po0KFoXiZwtBT0w1DQm2PMBP1QYmNjKSgoYMKECUyYMIGJEydSUFAw8LVJkyaNaJZN+SCfz0djYyPvvvsutbW1VFdXU1tbO/B5TU3NiEdH2ZyCfhg6BRNT9PX1UVlZSWVl5ZCvSUtLIy8vj5ycHHJzc8nJySE7O5vc3Fzy8vLIzs4mOzub9PR00tLSbPsXQnt7O263m9bWVurr6zl58iRNTU00NjYOPH7/123YzSJhZs93kkQkt9uN2+0e8dS1ycnJpKWlDQT/6Y9paWkkJSWRmJhIfHw8KSkpOJ1O0tPTcTqdpKamEhsbS1JS0kBbqampZ0ztcHr/92ttbT1jpElnZ+dA2Ho8Hjo6Oujp6aGrq4uuri56e3tpb2/H6/XS2to68PF0mL//sdvtjrTx5zIGKOglYnV0dNDR0cGJEyesLkUkqo3pfmURkbFAQS8iYnMKehERm1PQi4jYnIJeRMTmFPQiIjanoBcRsTkFfQTKLiwhNjHZ6jJExCYU9BFo0twL+PJD5az+6q/JK55vdTkiQYtLSmXu5TfxlV+/aHUpY5LujI1QcYkpzL38JuZefhP1R3dx+PXHOfrW07TWHbe6NJERccUlULjwEqavuJrpH7qa2IRk0n3NVpc1Jinoo0D+9AXkT1/Ayi/8O02VpRzZ/CRHNj9BU9Uhq0sT+QBXXCKTF1zEjAs+SvHyK4lLGtl6xRJaCvook11YwvLCEpZ/+k6aKksp3/I8lbtepfbgVrx9Ub1CkESp9HFTKVywiimLVzNl8RpccZqOOtIo6KNYdmEJ2YUlLPnkN/H0dlF7YAuVuzZRtXsTDWV78Pt9VpcoNhSbmMz4mUsoXLCKoqUfJnvyTKtLkrNQ0NuE8SfzKiYvWAVA56lGqvduprZ0KycOv0ND2W6d8UtAUvMmUTBzCeNLljBh9nLyiufjcGgcRzRR0NtUUkYuM1Z+jBkrPwaA19NLQ9luThzabmyl23A3VFlcpUQaV3wS46YvYHzJEsbPPI/xM5eQnDXO6rIkSAr6McLpimP8zCWMn7lk4Gs9Ha2cPH6QpqpSmipLqT+6i4byvXh6Oi2sVMIlOWuc0f03eaZxwb94AVmTZuCIcVpdmphMQT+GxSenM2H2cibMXj7wNZ/XQ0tNGScr9nPy+EFaass4VVNOS20ZfV0dFlYrgXA4YkjNm0TmhGlkTigma+I55EydTW7RHOKT060uT8JEQS8fEON0kT15JtmTZ3LOhR98rr2plpaack7VltFSXUZLbTmtJypoa6ymp6PVmoKFGFcsqTkTSM2dSOaEYjIKpvUH+3QyCopwxsafvRGxNQW9jFhKdgEp2QVMmnvBGc/1drXT1vAu7oYq2hrepe1kDW2N1bTWV9LRXEdHS73+IghAjNNFYnoOSRl5pOZOJD1/Mqm5E0nNm0RqzgTS8gtJzsrXxVEZloJeTBGXmDIw3HMont4uOlsa6Gipp6v1JB0tDXS21NPZepLOU410tzXT095KT8cpejrc9LS34vX0hvG7CL345DTikzP6P6YTn5JBQloWKVnjjUBPzyE5axxJGbn9AZ9rdcliAwp6CRtXXCJp+YWk5ReOeB9PTyfd7a30dLTS036Knk43fV0deHq78PR209fVgc/bR0+HG5/XQ2+HG6+3j76udgD6ujvP+GXh7e3G09s9zFEdxKec2X8dn5yGwxFDjNNFXGIqztg4XPFJxCYk4YyNIy4pDUdMDAkpmcQ4ne8Feko68SmZJCSng8Mx4u9dxCwKeolorvgkUuKTSMkeb3UpIlFLHXsiIjanoBcRsTkFvYiIzSnoRURsTkEvImJzCnoREZtT0IuI2JyCXkTE5hT0IiI2p6AXEbE5Bb2IiM0p6EVEbE5BLyJicwp6ERGbU9CLiNicgl5ExOYU9CIiNqegFxGxOQW9iIjNKehFRGxOQS8iYnMKehERm1PQi4jYnIJeRMTmFPQiIjanoBcRsTkFvYiIzSnoRURsTkEvImJzCnoREZtT0IuI2JyCXkTE5hT0IiI2p6AXEbE5Bb2IiM0p6EVEbE5BLyJicwp6ERGbU9CLiNicgl5ExOYU9CIiNqegFxGxOQW9iIjNKehFRGxOQS8iYnMKehERm1PQi4jYnIJeRMTmFPQiIjanoBcRsTkFvYiIzSnoRURsTkEvImJzCnoREZtT0IuI2JyCXkTE5hT0IiI2p6AXEbE5Bb2IiM0p6EVEbE5BLyJicy6rCxCJVO1NtTRVltJYsR93fSXuhmraT9bQ1dZMb4ebno7WD7zeGRtPQmomCamZJGXkkjF+GhkFRWROLCZ/+kJScyZY9J3IWKegFwH8Pi91h9+hev8/qD24hdrSrXS1nhxVG96+Hjqa6+horqOpspR397zxgeeTs8Yx/pzzKFx0CVMXryEtv9DMb0FkSAp6GbP6ujso3/ICx7a+wPEdr9Dd1hLS43U011H29rOUvf0sANmTZzLzomspufg6hb6ElIJexha/n5oDb7N/wwMc3fwkvV3tlpXSVHWIt/56N2898CMmnvshFlx9C8XL1+GIcVpWk9iTgl7GBHdDFQdfeZiDrzzEqRMVVpfzQX4/1fvepHrfm6SPm8qij97KnA9/HqcrzurKxCYU9GJrTZWlbH/sF5RuehS/z2t1OWfVWlfBq/fezvbHf8nS67/FnEs/pzN8CZqCXmyp8dg+tjzyE8reeha/32d1OaPW1ljNK7/+Knuf/x9Wf/XXjJuxyOqSJIop6MVW6o/uZMvDP6V86wvg91tdTtAayvfwyG0XM//KL7Hixh8Qm5BsdUkShRT0YgvdbS28/dB/sPuZ30flGfxw/D4vu56+l+M7XmHdd/5M3rR5VpckUUZ3xkpU8/u87HnuD/zxpjnsevpe24X8+7VUH+WR2y5m97P3WV2KRBmd0UvUaijbzcbf3saJw9utLmVI44DpQB6QAHiAFqASOAb0jbI9b18Pr/7uGzQe28sl/++XxLhiTa1X7ElBL1HH09PJ63+4k70v/DFiz+AXAZ8Apg7zGg9QDmwB3gRah3nt/7XvpT/TWnecq773CHFJqYEXKmOCum4kqjRVHeLhr69iz/P3R2TIO4AvAt9m+JAH4yzrHOBzwH8DtwNTRnGsqt2v8ei3L6fb3RxApTKWKOglaux+9j4e+ucVnDx+wOpShnQtsCaA/ZzAUuCnwNeB8SPcr6FsN4/dsW7U8/LI2KKgl4jX0+HmuR9/lld/9w08vd1WlzOkHOAjQbbhAM4Hfg5c2f/52TQe28cT3/uYpdM5SGRT0EtEO1G6lb/+0xKOvPGEZTUkpMC4aZB9llmGL8C8i16xwGeAHwK5I3h9/dGdPPujT+H19JpUgdiJLsZKxDryxhO89J9fCvtZfHySEezjiyFnEqRkGV8/uBmaaobeb0YIapkJ/AfwM+DoWV5bufNVNv7m66y97XchqESimYJeItK2R/+TN//8g7Dd3eqMhYklMHUe5E8FxyB/6yZnDN9GWmhKIx34PvBrYNtZXrv/5b+SP30B8674YoiqkWikoJeI4vP08cpvv87+9X8Jy/FyJsHU+TB5NsQmDP/ajPzhnx/tmPjRiAO+AfwncLa7Bjb9/lvkTZvL+JKlIaxIoon66CVi9HS4eeLfPhaWkB9XDJfcBKtvhmmLzh7yAOm5kDjMkPV688obVAzwNYwhmcPxefp44Wc309vZFuKKJFoo6CPQyqULrC4h7LpaT/Lov6ylatemkB6nYAas+QJc9GnInTzKnR3G/kM5Wx+6GeIwxuif5Y8LWuuOs+m//yUMFY1OUX6oOrhkOAr6COQ7WUbcGJqCvMvdxON3XEFjxf6QHSOrwAj4lZ+C7ImBt1M0zO/gHUA4buFKwTizP9uPyIEND3Js20thqGhkYhywMM9jdRljkoI+Avn7urmgcGzMYdLtbg5pyMclwuIrYM0Xgwv407InGr80BtMC7Az+ECNSDKwbwes23ftNPD2doS5nRFZNjSUnIfLuZh4LFPQRavW0OPKS7f3f093WwuN3XknjsX0haX/qAlh3KxQvBsdI7jwaodkXDv3ck+Yd5qyu4ewjfVrrjrPlkZ+Fo5xhleQ6uXS6lka0ir2TJIrFOeHmRfEkxZqYUBGku/0Uj995JQ3le0xvOyEFVn0Wll4N8SFYp2PCjKH/OjgKbDX/kINKwLh79mx2Pvlb3A1VoS5nSDNznNy4IAGnPX+Uo4KCPoLlJMXw5fMSSImz1zukr6uDv995FQ1lu01ve3wxXPZPkF9ketPvccDidYOPtQf4MxCuzpKLMe6iHY6nt5t/PPDv4SjnDMsmubhpUQIuJY2l9M8f4SamxfDPyxLITrLHf5Xf5+X5n36e+qPm9mbHOGH+WrjwBgjHanuZ4+Gc5YM/1wT8PvQlAJAKnDuC15VufISTxw+GupwBKXEOPjM/nmtnx+tMPgLYIz1sLicphm+cn8CySdF/f9vrf7iDY1tfMLXNxDRYfRPMPJ+RzQJmkrkXD31h9m3g72GqYyRB7/f72PHkb0JeiwNYVODiWysSmT8u+n9e7UJBHyUSXA6unR3P5xckkBofnadI+176EzufMncelox8WHMzZJ1lwrFQiHHC+dcO/RfEo8DGMNQx0tsBDm16lM6WhpDVcU6Ok1uXJfKpufEk26y7Mdop6KPMuflO7lyZxLoZcSRG0YXaindeZuNvbzO1zfHTjTP5pHRTmx2VlExjbL5rkAElfuB+4K0Q15A0wtd5+3rY++IfTT/+jGwnX12WyJcWJzAlQ5ESifS/EoXinHBxUSx3rEzkoimxEX9zVVNlKS/85EZ8XvNulpm2EC64DlzxpjUZsKwJ8KFPGGf4/5cXYzKyp0N4/J5RvHbP8/ebMpVxYqyDFZNjuf1DiXz5vAQKFfARTZ1oUSw51sGVM+NYUxzL7hNe3qzq40RbZN2Q0tPRypPfv4aeDrdpbc69GGatNK05U4wvhiVXwdanzpxw0w88BNQBN3H2UTKj9e4oXtvRXMeRN56g5OLrRn0chwOmZDhZXOBiYYEr4k8w5D0KehtIcDlYNsnF0kkuypu9vF3l4UCjhz6v1ZXBhl/diru+0rT2IjHkT5syz5jueMuT4B1kKsuNwCHgVmCaicc922yW/9fuZ+8bcdC7YqA4y8nsPCez81ykJ0RPd6G8R0FvIw6MN2VxlpNebzyHTnrYV+/lYIOXbk945nV/v70v/A9HNpt3r+icVZEb8qdNmmXMcLn5f6Gn48zna4DvAldhLDuYGOTxDgCjnTzixOHtuBuqSMsb/DJucpyDklwns3OdnJPjJN6lcI92CnqbinPC3HwXc/NdeH1wtNnLvnoPZU0+TnaGvnunqbKU1+67w7T2zr1o+KkHIknOJGMk0OsPQVvTmc97MaZKeAW4GrgMY1bK0aoHAhow6fdT9o/nWPiRWwDITHAwNcvJ1IwYirKc5CfHmDplhFhPQT8GOGOM29Bn5hidqu4eP+XNXipafJQ3e6lv92Hm+b6np5PnfvxZ0ybTmrXSCPpokpIFa78Eu16CY7sGf00b8CDwFLACuAgYyQ29foyVpu4HWgOsr2Hnc9zwb7cxNctJprpjbE9BPwalxTtYMN7FgvHG5x19fipafFSd8lLb5qOuzUdLd+DRv+m/v01TZakptU4+F+auMqWpsIuNhyVXw4SZsP1Z6G4f/HXtwEv9Wz7GwiLTgSkYywg6AA9wEmMunbcZ3QXYwRze+RYTXc1kJuQF2ZJEAwW9kBzr4Nw8J+fmvTeMoqvPz4k2HyfafQPhf6LdT89Z+vrL336OfS/9yZS68qbAso8S1rtdQ2HCOUZ3zo4XoOosHer1/dsbIa7J6/Xy7LPPcvPNN4f4SBIJFPQyqMRYB0VZToqy3gt/P9DW46e5y0dLl5/mrvcet3T5qWt28+rvbjfl+KnZsOKTg49Nj0bxSXD+Ncb8OAdeh9ojVlcETz31lIJ+jFDQy4g5MLp90uKdTMk48/mvfe07tJ2sCfo48UnG3aZxwQ5JiUDZE4zvraEC9r4KJ4PtgwnC5s2b8fl8xMToZie70/+wmGL79u3cc889QbfjiDHO5FOzTSgqguVNNRYmX32zsTBK3AgWJzdba2srhw8fDv+BJex0Ri9B83g8fOUrX8HrDf4OrTmrILfQhKKiRM4kY1twKVQfMvrwG6ugtys8x9+6dSslJSXhOZhYRkEvQfvVr37Fzp3Bzy+fXwQlK0woKAo5Y6FwjrHhB/dJOFltdO24T0JXG/R1G6/1+4yVs5LSjNk7K/dBoCNZt23bxo033mjWtyERSkEvQamsrOT73/9+0O0kJBsjbHSjDuCAtFxjK1pw9pd3d5x9NM9Qtm4N18KHYiX10UtQvvOd79DRMci9/qN03lXG1AEyekOtXzsS+/bto7MzXAsfilUU9BKwPXv28OijjwbdzszzjbHmEpjsIBZd6evr48CBA+YVIxFJQS8Bu+OOO/D5gps3JyUL5lxsUkFjVNZ4iAmiE/b48eOm1SKRSUEvAdm8eTMvvvhi0O2cdwU4daUoKDEuyAhiJoPKSvOmkZbIpKCXgHzve98Luo0p84yRNhK8YO47UNDbn4JeRu3ZZ5/l9ddfD6qNuESYv9akgoTkQe5UHikFvf0p6GVUfD4f//Zv/xZ0OwvWGkMqxRzBLJCuoLc/Bb2MyjPPPMPu3buDaiN3Mkydb1JBAkCygl6GoaCXUfnlL38ZdBvz1hD1Uw9HmmC6blpbW+np6TGvGIk4CnoZsR07dvDGG8HNlH56bnYxV0JKcPt3dYVpch2xhIJeRizYs3mHA+ZeYlIx8gGu2OD2V9Dbm4JeRqT4DaNnAAAZK0lEQVS2tpbHHnssqDYK50K6Vq4LiRhXcPMEdXd3m1eMRBwFvYzIb37zG3p7ewPeP8YZfQt8R5tg7o7VGb29KejlrDo6OrjvvvuCamPaIkjJNKkgGVQw3Tea2MzeFPRyVo888gjNzc0B7++IMdZKldByBhH0OqO3NwW9nNUDDzwQ1P4TztHZfFj4rS5AIpWCXoZVVVXFm2++GVQbM3U2HxZ9gV9CISUlyPGZEtEU9DKsBx98MKipiLMKIGeyiQXJkLx9ge+roLc3Bb0M65FHHglq/5nnm1SIDMvrAV8Qa7MnJ2viITtT0MuQdu3axf79AS5GijHR1qRZJhYkQ/IE0W0DCnq7U9DLkB588MGg9p863xhxI6GnoJfh6G0og/L5fEF320yZa1IxclY9QazPnpCQgMulZb7sTEEvg9qxYwcnTpwIeP/sCcGteiSj03Eq8H2zsrLMK0QikoJeBvXSSy8FtX+hzubDKpigLywsNK8QiUgKehnU+vXrA97XEQOTZ5tYjJxVR2vg+06ZMsW0OiQyKejlDG63m23btgW8//hpwc+PLqOjM3oZjoJezrBhwwb6+gK/+2aSzubDrjOIM3oFvf0p6OUMwXTbAIybZlIhMiJ+H7QFPuecum7GAAW9nCGYoM8cB4mpJhYjZ9XaENz0Bzqjtz8FvXxARUUFVVVVAe8/rtjEYmREmgMfBYvT6VTQjwEKevmAd955J6j9x6vbJuyaawPfd+bMmSQlJZlXjEQkBb18wI4dOwLe1xUHOZNMLEZGJJigX7x4sXmFSMRS0MsH7Ny5M+B986YEt26pjJ7PC631ge+/cOFC84qRiKWglwF+vz+ooM+eYGIxMiKn6owpigO1aNEi84qRiKWglwEVFRU0NTUFvH9WgYnFyIicKA98X6fTyfz5880rRiKWgl4GBNM/D5A53qRCZMTqygLfd9asWZqeeIxQ0MuAPXv2BLxvUpqmPQi3vm44WR34/uq2GTsU9DKgoqIi4H3VbRN+9RXGXbGBWrVqlXnFSERT0MuA48ePB7yvum3Cry6I/nmHw8GaNWvMK2aEOh0pFC68OOzHHesU9DKgsrIy4H21yEiY+eFEEP3zc+fOZfz48P927nPEkZw5LuzHHesU9AJAb29vUCtKJWeYWIyc1cl3g5ua+LLLLjOvGIl4CnoBjLN5ny/wDl8FfXgd3xfc/pdeeqk5hUhUUNALEFz/vDMWEjRKL2x8Xnj3QOD7Jycnc/7555tXkEQ8Bb0ABDVjZXIG4DCvFhneiTLo6Qx8/1WrVhEfH29eQRLxFPQCQGtr4EsUqdsmvI7vDW7/q666ypxCJGoo6AWA9vb2gPeN1yy3YdPXDbWHA98/Pj6ea665xryCJCoo6AWAjo6OgPd1xZlYiAyrYndwk5itW7eOzMxM8wqSqKCgFyC4M3oFfXj4/XBkW3Bt3HDDDeYUI1FFQS9AkGf0sSYWIkOqOQTtQSwCnpmZybp168wrSKKGgl4AndFHg8Nbgtv/2muv1WibMUpBLwB0dgY+Xk9n9KHXcgIaA5+hAlC3zVimoBcAYmIC/1Hwm1iHDC7Ys/mpU6eyYsUKc4qRqKOgFwASExMD3tfbZ2IhcoaOU1C1P7g2br311qB+mUt00/+8AJCQkBDwvsEM95Oz27fJmPYgUKmpqdx8883mFSRRR0EvgM7oI1VrA1QGeSfszTffTHp6ujkFSVRS0AsASUmB396qoA+dvRuN8fOBcjqd3HrrreYVJFFJQR+BqquDWAg0QMGc0XsU9CFxsgpqgpjuAODKK69k2rRp5hRkgrr2INY+lIAp6CPQiy++SFN7T1iPGcwZfZfbxEJkwJ6Nwbdx2223Bd+ISdp7/Ww8prMCKyjoI1Bvby/3v1qOL4zjFseNC3x5t/YgVjqSwVUfCn7c/KJFi1i5cqU5BQWpx+vnz7t6aOvRYFwrKOgjVGlNK3/b3xNU/+xoFBYWBrxvZ+AzHMsgPL2w66Xg2/n+978ffCMmcPf4+d3Wbipaghg6JEFxWV2ADO2dGg89Hj/XzYknwRXalT2CCXpPr7EQhqYrNse+V4NbDxZg6dKlXHHFFeYUFITdJzw8UdpLR6/O5K2koI9w++q91LZ18+l58UxOD90fYIWFhTgcDvwB/gnRcUpBb4ZTdcHPUAnwk5/8BIfDumW/6tt9vHCkl/0NOouPBAr6KNDU6ePXW7o4r8DF5TPiSIs3/w2ckJBAfn4+dXV1Ae3vboSsApOLGmP8Ptj2jPExGOvWreOiiy4ypabRaur083J5LztrPWG9xiTDU9BHCb8fttV42FPv5YJCFysmx5JqcuAXFhYGHPRNNTBlnqnljDlHtkJzbXBtxMTE8KMf/cicgkbI74dDJ738o6qP0pPesF1XkpFT0EeZHo+fV8r7eK2ijwXjXaycEktBqjldOkVFRWzdujWgfZtrTClhzHKfNKY6CNb111/P/Pnzg29oBOrbfeyt97Ktuo/mLqV7JFPQRymPD7bXeNhe42FcSgzzxrlYVOAkOynw0F+0aBGPPPJIQPu21IPPAzH6iRo1rwf+8bhxUTsYcXFx3HXXXeYUNYT6dh976rzsrvNQr5ufoobeljZQ1+6jrqyXl8tgSqaT+eOczMx1kjPK0F+6dGnANfg80FIH2RMDbmLM2r3euAgbrG9+85sUFRUF39D7NHf5KW/2Utbs5WiTl9ZunblHIwW9jfiBihavMV65FLISHUzPdg5sKXHD9+kvXLgQl8uFxxPYdJSNlQr60aouhaPbg29n2rRpfPe73w2qDZ8fGjp8VLf6BsJdXTL2oKC3seYuP1urPWyt9uAAxqfGUJgRw8Q0J5PSYxiXGoPzfdmflJTEueeey+7duwM6XvUhmPkhc2ofCzrdsP1Zc9q69957RzVfkddvdMNUu33UtPqodnupbfPRq9GQtqSgHyP8QG2bj9o2H2CcsbtijPCflO5kYloMBakxLDpvacBB31QNXW2QmGpe3Xbl9cBbjxo3mgXrhhtuYM2aNYM+19Xnp7HDT2Onj4YOn/G4w3jsURf7mKGgH8M8Pni31ce7re+946tTAh+x4fcbsy0WLzajOhvzw/ZnjF+MwcrKyuKOu3/Okf7+85YuP6e6fTT0B3q77kgVFPTyf0yaF9wkWNWlCvqz2fcaHA9yMZHTFn/2bv54OBXoNqdBsSVNaiYfkJZfSF5x4Gf19RVG940M7vgeOPC6OW1NmreSc9d+1pzGxNYU9HKG4uWBT4bl98GxXSYWYyONVbDNpIuvCSkZXPaN34OF89lI9FDQyxmKz78qqP3LdwS3mLUdnaqDzY8Y9xsEzeHgsm/eR2reJBMak7FAQS9nyJkyi8yJ0wPev7MVKveZWFCUO1UPm/4KvV3mtLfw6lsoWvphcxqTMUFBL4MKpvsGoPSt4GdhtINT9bDpL+YMowTIK57PBTeFdpoDsR8FvQxqxgUfC2p/dyNU7DGpmCh1+kzerJCPS0xh3Xf+gjM23pwGZcxQ0Mug8qcvIH/6gqDa2L8p+Im6olVLHbz2V+jpMK/NS279LzInTDOvQRkzFPQypDmXfz6o/TvdsN+koYTRpK4cXv0TdJsY8uddexslF19nXoMypijoZUglF32ShNTMoNo4sgVaTphUUBQo2w6vPwR9Pea1Of1DV7Hi8z80r0EZcxT0MqTYxGTmX/nloNrweeHtJ8DbZ1JRkcoP+1+Dd5439yJ0XvF8LvvmH3A49FaVwOmnR4a14Kqv4Apy1W93I+x8yaSCIlBvN7z5NyPozZSaO5GP/vBxYhOSzW1YxhwFvQwrMT2HeetuDrqd8h3GZjcn34X1/21M0WymuMQUPvLDx0nOGmduwzImKejlrJZ88pvEJ6cF3c6OF+BEmQkFRQC/Hw6+ARv/BB2nzG3bGRvPFXc+QO7Uc81tWMYsBb2cVWJaNouv+XrQ7fi8xhzsJ981oSgLdbqN8fF7XzX/pjCnK44r//VBpiwefH55kUAo6GVEFn3sn0kfNzXodjy98NoDUH/MhKLCzO8zRhG9eA80VJjfvtMVxxV3/pWipZeb37iMaQp6GRFXXCKX/L9fmNKWpxdef9i8OdnDobkWNvyPcVHZzKGTp8W4Yll351+YFuTUEyKDUdDLiE1ZvIYZKz5iSls+D2x5Ava8Etlz4nS1wbZn4OX7oLkmNMeIccVyxZ1/pXj5laE5gIx5WmFKRuWSW/+LmgNv09FSb0p7pW9CYyUs/QikZpvSpCk6W42J2Y7tNNZ3DRVXXAIf/s6fFPISUjqjl1FJTM9h7W2/M3XBi5Pvwkv3GisvWX1jVXsLbH8Wnvs1HN0W2pBPTMvmmh8/p5CXkNMZvYza1PMuZeHVt7DzqXtMa9PrgX2bjLH2sy+EqfMgJkw/nV4P1BwyZtusKw9PV1LmhGl89K4nySgoCv3BZMxT0EtAVn7h32ko30P1vjdNbbfTbZxR79sE08+DKfMgOcPUQwBGmDfVGBeEq/abtyjISEw493yu/t7/kpCWFb6DypimoJeAxDhdXHHnAzz0tZW0NZg/ML673Qj7fZsgtxAKpsO4aZCRDwFN++KH1kajm6jhuHHmbtY88aMxc9UnuPS2ezWnvISVgl4ClpSRy8d/9BT/+801dLubQ3acxkpj2/MKuOIgczyk5UBKFiSmQFwiON/3k9zbbQzh7DhlXFRtbYTWBmvnxo9xujj/M99lySdu14LeEnYKeglK1qRz+NhdT/DYHevo6zJxAvYheHrfC/5okZo3iQ9/649MmL3c6lJkjNKoGwnauHMWc/X3H9Usi4OYccFH+ezvtijkxVIKejHF5HkX8vF/f9qUyc/swBWXwEVf/hlX3PkA8cnpVpcjY5yCXkxTMGsZ1/7kBVKyx1tdiqUKZi3lht+8ycKP3GJ1KSKAgl5Mllc8n0/96g3ypy+0upSwS0jJ4KIv/4xP/nwD2ZNnWl2OyAAFvZguJXs8n/jZi8xafYPVpYSFwxHD3Mtv4qY/7mPhR27Rsn8ScTTqRkIiNiGZy27/PYULL2bjb79Ob2eb1SWFRF7xfC659ZeMP+c8q0sRGZKCXkKqZNUnKShZysZ7buP4OxusLsc0uUVzWHr9t5n+oat0Bi8RT0EvIZc+bgofu/tJDr/+OK/d9x06muusLilg42YsYun132La0g/rxieJGgp6CZtzLryGoqWXs/Op3/HO4/9FT0er1SWN2ITZy1l63be0xJ9EJQW9hFVsQjJLr/sX5q37Aruevpc9z/+BzlONVpc1qOTMfEouvo7Zaz5NdmGJ1eWIBExBL5ZISM1k+afv5LxPfINDm/7G3hf/RN3hd6wuC2dsPNOWXs6sNZ9myqLVxDj1FpHop59isZQrLoFzL/0c5176OVqqj1K66W8cfetpmipLw1ZDQmomhQsvYep5l1K05DISUjPDdmyRcFDQS8TInDid8z/zXc7/zHdpa6zm+I4NVO99k7oj79BSU27OQRwO0vOnMG7GQgpmL2fCrGXkFs3BEeM0p32RCKSgl4iUmjuROZd9njmXfR6A7rYWGiv201pXQeuJCtz1VXS3tdDV1ky3uwm//719YxOSiEtKIS4pjZTsAlJzJ5CeX0jmxOlkF84iLjHFou9KxBoKeokKCamZTJp7AZPmXmB1KSJRR3d6iIjYnIJeRMTmFPQiIjanoBcRsTkFvYiIzSnoRURsTkEvImJzCnoREZtT0IuI2JyCXkTE5hT0IiI2p6AXEbE5Bb2IiM0p6EVEbE5BLyJicwp6ERGbU9CLiNicgl5ExOYU9CIiNqegFxGxOQW9iIjNKehFRGxOQS8iYnMKehERm1PQi4jYnIJeRMTmFPQiIjanoBcRsTkFvYiIzSnoRURsTkEvImJzCnoREZtT0IuI2JyCXkTE5hT0IiI2p6AXEbE5Bb2IiM0p6COUt7fb6hJEQqKn0211CWOOgj5CnTiyy+oSREznxEv13s1WlzHmKOgj1MFX/2Z1CSKmi286SE9Hq9VljDkK+gh14tA2qnZtsroMEdMkxHj47dc/anUZY5KCPoK9/oc78KivXmwgxuHn6bs+xamTdaE6REuoGrYDBb056kPRaGPFfjb/8XuhaFokjPxsuuc2Drz1QigPsj+UjUc7p9UF2MQkYFkoGq47soPkrHHkT18QiuZFQsvv48Wff5G96x8I9ZF+CDSE+iDRSkFvjhbgC6FqvGLbetLHFZJbNCdUhxAxnae7g6fuuo6yt54J9aH6gNsBb6gPFK0U9OaoBT4NZIWmeT/lW14gLjGFgpKloTmEiIlqD27hse9cQf3RsAwTfhu4PxwHilYKevPkAitD1rrfT+XOjTS/e5ip563F6YoL2aFEAuXt6+Hth37My7+8hZ72U+E67I+AneE6WDRyWF2AjRQAh4GUUB8ou7CES2+7l3HnLA71oURG7MibT7H5f75Ha11FOA/bhfHeC9tvlWikM3rztGH8e14c6gN1tZ5k//q/0tFcR8Hs5bjiEkJ9SJEh1R1+h+d/8jl2/P3X4TyLP+03QMgvAkQ7ndGbKxFjmFdRuA6YlJHLiht/wKxLPkWMKzZch5Wxzu+n4p2X2fHkb6na/Rr4/VZU4QamASetOHg0UdCbbxnwBhDW1E3Lm8yij/0zcy77HK74pHAeWsYQb18Ph994gu2P/YKmylKry/kBxrBKOQsFfWjcAfyHFQdOyshlwdW3MP/KLxGfnG5FCWIzfr+Pmv3/4NBrj3Fk8xN0t0XETailwGKg0+pCooGCPjRigOeAy60qwBWXwOQFFzPrkuspXn6FunVk1JqqDnFk8xMcfOWRcF9gPZtujL+c91hdSLRQ0IdOMvAqsMTqQpIy85h54bXMuuR68ornW12ORChPTyfV+96icterHNv6Ii01ZVaXNJSvAb+2uohooqAPrRzgTeAcqws5LXNCMVMWr2HKotVMnLOC2IRkq0sSi/j9PhrK9lC561Wqdr5KzcEtePt6rC7rbB4FrgMsufobrRT0oVcIvAZMsbaMMzlj45kwezmFCy9hyqLV5E49Fxz6kbCrng439WW7qD+yk7rD26ne9xZd7iaryxqNF4GPAL1WFxJt9K4Oj/HA80BEz0yWnJlPwaylFJQsY3zJEvKK52uMfpTy9HbRULaH+qO7qDuyg7ojO4yuGGuGQZrhdYxrXl1WFxKNFPThkwr8HVhjdSEjFeOKJWfKbHKL5pBXNJfcaXPJnTqH+OQ0q0uTft3uZlpqjtL87hFaaspoqS0zHlcfxef1WF2eWbZivG/arC4kWinowysOY/Klz1hdSDCSMvPIGF9E5oRiMgqKyCiYRmbBNDIKphGXlGp1ebbi93npaGmgvamWtsYaWmqO0lLTH+Y1R+l2N1tdYqg9BtyIhlEGRUFvjc8C9xCGeXHCLSkjtz/8i0nNnUhSRi7JmfkkZ+aTmJ5DctY4/UXQr7v9FB1NJ2hvqqWjuY62xmo6Wuppa6yho6We9pM1dLQ04PeNydl3/cDPgDsBn8W1RD0FvXXOAR4GFlpdSLi54hJIzMglJWu8Ef6Zef2/ANKJTUwmPikNV1wCsQnJxCWnERufhCs+gfiUTFxxCZZfN+jpaMXv9+Pt7cbT20Vfdxc9Ha3vbe2t9HSc6v/YSk/7Kbr7P55+3NvhtlPXitnagc8BT1hdiF0o6K0Vh3EH7TfQ/8XIORwkJKcTm5CMKz6BuKT3/kJwxSXgfN8vAldcIq64+IHPT4f0YPo62/H5PPg8ffR2dRiv72wFnw9PXy+eHvUehMEW4GbgoNWFiJhtJbAb489VbdrG4taGcSOU1rEWW4vB6Luvx/o3nTZt4dxeA6YjMoZkAr/CWAfT6jegNm2h3CqJ8hFoIsGajTG0zIv1b0ht2szcqoB/wrhGJSIYi5j8CmMcsdVvUG3agtnqgW8Dut1aZAjjgJ9grI1p9RtWm7bRbMeBr6KAFxmxNOBfgDKsfwNr0zbU5gM2AFejtaktp7Hb0cuBsRD5F4CPAvHDv1wkLKqBB4C/AIctrkX6KejtIRO4BrgeuBCNRZbwagWexQj4V9CUBRFHQW8/BcAnMebt/hD6s1lCoxl4BngcI9wjfsWSsUxBb285wBXAVRjTvNpuEjUJqz0Yi3+8CPwD0GQ9UUJBP3bEAcuB1Rihvxid7cvwKjHuWn0N48JqjZXFSOAU9GNXJrCif/sQRvDrgu7Y5cOYSGwrxjrHr2EMixQbUNDLaQkYYb8cWNT/eJqlFUkoHcfoitmOMWPkdsBtZUESOgp6GU4GRuAvAs7FmJahBN34Ek1OYQxz3AfsxQj3vf1flzFCQS+j5cSYlmEORuhP79+KgTwL6xrLuoCK/u0IRrAfBkoxph2QMU5BL2ZKwwj8acAUYCJQ2P9xIpBvWWXRy4cR1jVALcYNSTUYXS+nw73OquIkOijoJZwSMAJ/HJCLMeY/F+MvgfH9j7MxuowysGcXUTfGDUatQBNw8n1bw/seN2KEej0axihBUtBLJEvkvdDPANKBVCAZY4TQ6V8Gif3POfu/dlo6790lnALEjvL4HUBv/2MPxipIp7X1f60FY+2AdowulO7+53oxwrwF4yLn6XDXjUUiIiIiIiIiIiIiIiJjxP8HWp1XwjTwnBwAAAAASUVORK5CYII=;" vertex="1" parent="we7WmdxZvCQZfko0I5lv-3">
          <mxGeometry x="70" width="50" height="50" as="geometry" />
        </mxCell>
        <mxCell id="we7WmdxZvCQZfko0I5lv-17" value="ROS1" style="shape=image;verticalLabelPosition=bottom;labelBackgroundColor=default;verticalAlign=top;aspect=fixed;imageAspect=0;image=data:image/png,iVBORw0KGgoAAAANSUhEUgAAAbQAAABzCAMAAADHcAfMAAAAkFBMVEX///8hLkoIHT8AGj2jpq4YJ0UAGT0fLEmytb4cKkcAFzzW19sVJUQRIkIAFDoSI0JhZ3g1P1cpNE/29/gACjYAEDnw8fPFyM4AADPs7e/R09h7gY/g4uWorLW+wcgvO1Wbn6qGi5hHUGZpcIBJUmeSl6JTW2+BhpNwdobBxMq1ucBka3w7RVxYYHOWmqXd3+PgBeGXAAAVOUlEQVR4nO1d6Xqrug4tEHAgQAZCaOZ5aJvsvP/b3YxtosHIQM9u93fX37oxtmxZkqXll5f/g0dvUP+zO+ynHasz3W+W63HWS6rvJeln4/Vys+9cu/mY1yYjYTfHSW02HvRFTd9OTTNR01FWm9WykewTrug3DHE8jnomHQg/432792I7Cn1lnaF8N7KDdL8bG40mD8fxbpoGduQ+duOl7mGeO8HJrG0Htm3H/iHL66a2vzZ1N5O8pvVFdGkart7Fo3iZvXpmOE2sNV3tall1uyCpb3yv6VsYfuhEi1pFi6T/Zx85IdWNcqPAP7zrRlQPbP/euLvRrqRJ5Nw7cdPFUdc0s4LPpvF+IB1JzSYGoYM6r08/tOPu4k9D2osOx23quYrv0Le7H+Lh8MgOrzYlsC/BOemO7WcYP35h2NRstvlTUzfQbLZZ/PhFfjoWjsVYaI+zme7/iNS2BselF+X2FKabXJWkR7ZJw/wRhTGjz5YOGLrHfs8weG6qYlbvrWPQv1RqJYR2/njbXpY5dHo7TzCX1nnBbrR6Ro/RIXBlA3KDPSEONLsnvc2s1nEXNlUe8+WTV9R9Klub5YRmnXfBsPBuG0f5u+wON50XPUVnsVBkZ/jdFlyGDQc3CzdkV6MIK3p3TzbtWbipr0QDKi00S0WuVBeDr27FmqMM92PvC52hycYzG1AYrZ9/oUVpA3pT7KhVGNeppnNq5p2ZZEjlhXZW260CBl4WyTTjF/y0Zt5NQ5l2Yyln/6jRRinVKGwRnfWJPXn67hXRNFHUivXbkjFVITTLalrGJ84sNdlmN6Q7024yrcnIwbUflAc9RconToU6KTTLJs79CTonL4gl2qQaoVm+zgimsKW/OQ/2xuxgGxhp4C+oePj5Gwda7PEb7m5J72qH0I9z+ji3/whGVZHQLNU1ktouyP9JEs2piSYeeMVkdoK9uO+kKdNghvub0vKN5rjphjaOmkPcFKEqoZ3WpoGZAP0eA4R7udT6nSK68d5R56bUmL9TkmBMHkoSjHzDD8G4KhOa5XfEpv/Q0J57QrQQa8iVsQ3yCNe9Bki47yCExuh8SmgdWge4lH0DUZ3QONcFA/uqRoik/cyK6uAbfPtybHGfscY9khbhqekWN10wO01ialUoNCuYieayrjMOlO+6oXuPwtNwiDkgQDm6F/hhZDuO5zhftwr0t3QvA1rR0+sR4akDfVDZhKsybJJNqf2LAIUW2nmIyED5BbEkpDVCgZ77HIW253YWh4/dsrWY+o4dchNKe6sQS8o+U1Hgtpfr8ftkMqmP17tFx/a4AcWzy++sGTuPGOyM3gLUcc94BwFhkyIAoYXDcU2Hce3PfLeIAnqZhMv8DpM9PUW+F37UHm4Ye43xssPEn5QtcAsbxOJQnjWEN2fH9+E0JmMeN/03IJ1rf0H0eSQXpD8lTuE+eUYoS2JmAaE5oqu43tswtqlt4OVbkFtyMbrdRR1/bjI5dElbggnnPeED/aeKwjE5J0m26yJdGn8qKnKZeWTs7kB9Lu17kRGvSGLxI6GJFM95nDWL6DR/q2XUWvSDDXeTNVo61G5zCCsA/CNeyYFmRnpr9Twe5+tweScMGt+ihxfgtaxs0txtUKu3K7LAiwrtNMwhscG7eaca5Tk1O7peBwtK++cqSHy8BHot0ts+Xkl6jwJu4fXJxRJ2WBRdZnRz7Piks5xRXVFcaKeztIuWVV4U5g+xvIK8cPOcCFOGh5yPQzZfNzdfo7H//DrnSWUkU7jbbzYKgT0UcMDagwc4GY4wtFpGaC8ZOtj8jvYfKCs8X9O9TCK8P3NkMILbU3Tpsb2FvWyg5vvtJ1GoV/6be4vnGe3yOjk5PEfZYoEdd0EpoZ1cLjiXelNkiPVMLLmMG2Cp5VxiQIvapa5HMCaXnBwbbeNkmX7msago0s7SMP3clypytLdJ84ckiGaQv3pvKCc0LAXKj/wEcTMlTIsY4C3qaT91Cz6MT+p4xjFy6ZBLdojtyHXdKLa2Oep80PKcpuuGJ5cw71a/sbSdy6960U6et1FSaAm8MyfvBu/AVq4nuYk4I0Ontq81+8GR5k+lIxpNHeb651gbHjYf84nAkxqNt+em7wJbsD/etjated0kZ6Ok0F5mME+pzYdz+8h0juSXmjW0S7XWIEjKE0WHrhgdviGvuVqUFVoPRqs9fpejez8yVMABRaV0x1QC3EEv13T8TSgrtJcdiAHE7OGRIB8tNUlC7aF/7/JGDzw90xIJeD8PpYU2AYeNzVoWKLAgi9l8om7w/wNg1na/of7g76G00PoOOD1YwxXeWyhlOJML6OJGrHb9v9D0ADdS1IXfBX0YdRTlsDwChdv58DYUWlo2ff1HobzQwBUse/U6hkEbOo6qA0yGcdmECig0/qT9jSgvNJA2xmamwPt1Ayv8jgwWN1C5hxccwabU+vy/DuWFBoIiLhPJ7cONlhao3IA3W2wdEdTF5JXlr0V5oQHvi0snegdWpijtCALet/D2IzxAgwpK3H4MKthpz+rRZULV0J+j8mJyMQJ3jIq9VIDhNWHA+HeggjPt2Tpo0oYITA3hjyMtoH5kL11RAq8tS+H6FajcemRMfrhHCmlHnDzGfi9OlY/NDZ+fivJCA6FZxvuqiwMnWkCrkHUwiAw1b/mveNilhTYCERFGGnDlC/K2SID4NHsVCnf2GVFHklT4C1A+9giWNOPGgjNGRQW/F9ozLrd7qLRrP91UQsjwt1FaaLAky6ENDHAWcd5cLqDR73GmPJ0X7KbLf8D2L32fZkF9RQanoLNLFXeJAONTrOdwZKo8Qm9RxNk4IxllWUNm9CajQSYjZHpJ+uemRiG9skKDOXGMVQgDUIUvJfvAlOeDYUwxxDkB3dsW0JLZspPGQeos5rmhnMFuemoaB/tt7jXeYNg+N433Q4NPKim0HuTaYbYQNOZyk1o5QH+Pz2kecIUeZ1HH+7XZtWhjH9zqQXzb1jsPo1Vw5YxSfuQNtVuofwhueWZ+FMiN25JCW8JKDOaMgSeMeYT/DrCBXL5YjayaueM09dO5fHHX0sdu7bZmzdWfqkYiHYXA21NhUGRLj9tyQqvBy2RFp7i/fDxPtT6TSgsQNdMkEvWZEr/7p/pR2pkPRKsHlkG6HVZqY1B954fs0ngHbonvCC+QSgkNesz8EQMM8ILxkDOA+agLh000CvI2TVHcHubPFM5/d7m1kiHuJN9ivrDxivKzqZo3AmWEtsa5p1yuDSgLF9Xw03gHp2OgsdHmgjrh07kTbvV6qU9UN9p0KKZnYfcwYtybNm7qym6QigutQdAXsSeMVTgNEQJmrWrzrCAlHA3VTKc6u4RIZj8tT/If1mT9ErkmalQxUCpyR4oKbUDWjcWMJd8Di6qwm3bqGMhBn0iwJas4MU52yYabL7pmkzRbE7LimIwkJCQnheyy1rwSNElGk7lP0ieyl1Z90LpguPiMo5nHN/OkVCJuEK1JVTsmq6NVh7DQqfLDE0LiqMro5eRIPBEgNH/V0uOw2avUY3gDWLrCEVAwsiph+qfAvOTphqwjpidUdjQkpndJe+kxofRIRUonsHPl95JkFnhB5bs58HkShyabHHUEhWwlsrShssrdtMkuldM9Rjauc2nTTanpJWyLy68SRzgTsBEl8FbII+LzyacNIDQR8QKNHhRa/tIcrGKpjjytvO4aWPNMQ0oSDHsUJQlGvv8xzRJrhbzgovCgeBpiYi6001kzNRCbPX1eUkwzSmiM2RP+WJolvgwZE8pS54EQSGiabh9Q33tiJenHu8fNxrSi8t8ZupomkYLB0KlIqFiqE5qO76HKnVZAPV7x1nI43iWEaPoQJFjQ/+UQhynDyESlYDDUkIVolooi1h6g8EwrYYggocm9h9E6ilnqpmf49tcXzml6IooEnDEJKcXCTLwos7AaoalUX+R9hPfNxU1+Y+vxCdnOl5HKq69i8DfSuSZj3jQjE+nS0czIypXcnFYiNDdv5pCfZp709flThn4aRO99FwUSuX3SLuBiyDNscpmSJxVtxpPUqiLjsQqhKaed58bD++YKIyIFvIeT3LoB+bbNEz5JeWoEp6jyyDA/GRKhuZMoRibrVXQ1W15okZtfZ9aDRWympWlfQLHHYoZoNpwGBKXMI5RzD4+gakaeSoNgNIuZwRKXtI7s9qOk0FSUbiVauFNZlP8NRvkLJy4M5tNUa0+G91DqKIXiZQmReiHKR+cSz5IObNoU1vaUEZpyvWguSzlqCysP8wGzTewyNZ6NuR9o7Elvdm/nPs9vwHtTx87zXuNYSU7oAx4tW8rOXEJonvoQG4EbcWZHHoBVLWO11CDbuQ6rJl/vP37cf9FYKberUxT9x6CZ39Utz94hfWz6IU2cQUJTDNCAXAl1zR0gMViJCXQQgFPq70tTtfTHbS6k/FBNMrO8pu8r37WDVc4xOu4E57cQfTcKFjlRhPr0s2lb7rtCoXU4oGHZJrY2TAxOC081CDoUTlV+Qrahg1yPblPyvltNp/vWWpDDNRlu2p32YS4wkrJbU5MYkfjmGuXGy+mmXnBmR1o0pz6ZPu/5EqfjE7INyWEOIpuJ/GnZJPmOpleIhYYftOGf4MOA2dyFvesR2LIlEhcAJtRjbuSDTH8d8hyRUlsNclUVtvkn0Leujmsi2RFOdOFU6O+EXGiw0t0sggjrNIpmq6JU5SpJr/DbkGUCbt8Hg2wsFIIz0R0gxdhyCloi4JZeyd5jlKKOorjhTyzVNhDaOz7V5FYqrK6RMp0CJDClpeIzByUjquIJ7N8Hk7xHlNZgQKmSAYnzvGf/xc/wwLHDijuoAiZCQ9x90id+X3DmY8EtAku3S2QI0RihXPyKO6gCJkJLymw1eBMvyspEgPl73cqpa1vQy666gwpglBaOc23lRxPcI4UcrAGwYL+B8gpxWVTeQ3mY5fLDuk+DKBIs4C1k9MMM3sqPNCINoPIeysNMaGPkq4lpiFFtgvw8/EQPxq1LpOKxfUANXHkP5WEmNETDb7DVYEq8lsGf+VgDPvmigMHN3y80oqiKLr4iAANQKjA2ReCSYal3S+AfFFqCspnFGyaBV/uiZNqnb4XKmWV+KQFIjPIPCI14S8uR3rKgp0sdszlP4GmT84RUMSAG2G/ooyxMhZYgU0S8YeD1jLTC+A70MGW+19Azr+1u/HPW4wtVVSw+m1Cmu/CN5Sugj3ayHfNyepJV11QFY1Lzpx+UZxElcuYkg6ZXGAuth7KXxFsNczCKVStVo5z7ulCyb1q2KGX3AbAw4lMFj2Yb77X7au0muVPcr23sU1O1rOc27Y1b0amp+0E/MUvDvFAeb7VX6UUhKiL12+JP/UD3ynkSTxbnQ9ReGS1jeFvr31ya3tC2Lz6LCuN2jl+0DZ1702lOKvXady4BC+V61kz8keZC66OwCENbjAHf7eI5NhDW6F/zyu+S1VXMzb3J5TNMdLrlQmfuw5rx45ZmITQ6DyVCfsCnPZ42b/uB4VR5e6nyLUBJgemBI+G0JDgTD76+yWCGK1dyYjFn3XiTrkFZPjL4r9cI78GzbtaklWY24Llps6JogGxk1xLOYwGh9dClvPh5JhwGO0lNoL7WOA8gp76kt/pyMFR3KNXC6C3F4PyfDfT8L6shRogCI+Rs5B6qJWDJmwCKkL/A9zbludn4cue8anNndEcUoOtz+O+68T7HU9kd+xouqksqNFXrxL26usf5kzazpDe4ViOSRSqKCA35n/KtRlGehLZ+Ro9TIreNLg+740s33uDHEvZiTPZ1KQ6muZPIdUpVRTH1S3RVlCjeUIhmCW01JX6frEXU86l0yW+b3jwgUu31D1M+6sY73HiXI7b+Es/4+bROkOV1+QuZBEhyJ9EJtSsqp1kWfy8kNFjYaZDH2CeLi6KIKZhKZhZZIdLV3eskC6r0WTXtgyY5IZmF+L8ugVWcO3gGuWxo7iSliME1aF5DkU1XjNAM0QnJaoXPYOijotcWemC497brojfrL+COiSv2HLGSG7s0K2cyGAZUTxdtNaSLfWNi42LD+gIqoxZWN9ygf737hmJCw+kv+jPmEfix69uMetFhXh+M+r0k6Y8ak3nL57gIXH2pTI0n51RROl3WBg/LORkNZrtpTDIYXAna9vRHUCXI1GMAzOTARNAbRLdNBakD0cyrUBzbmLIsLG7keNE5bOJHnheRR8mlrygn2jnX0Tyq0PbCzn7zsfxoHfZTK/LskJ5rdS0TYX6HSnVgiv0MaJa4R7GeUFBoR6Tn5Vtt5OfUOuu5h09KK9d+10rt0ofvhqGenu1zrrm//hiaJXHqOnw+xFJyAnCyrl+OVFBlPxQQ4ebhTtDG/JkS2s/eaS9H5O8a5MTlM0JrEIgMVcjvXQB3n8ngTGMIryhNSvk+Fk2jhVCYw/gDdup35OF0TDMuRizMC6mh0JNpR7PbL+3kJJ04VnRtSrgajPVIMW7hsRUVWgMZkI7BC7eYNF2IVJzLk8lp5yh8LQ4DP41mZKL9NPr8E5G8F2cLR1tNWQY3V5ldZEqVjp8QYrQqQbfxsKHxte8ZpG1OMzLRt8SkeyCjfSguNEidI9zadxzbYm7hryE5Zux1W0TaIsUTQducEv4rGU2YkbFHMn5Wp3alNtLziRKPKaBSBe7NEhpJiyxN18A2us48I+vQEZUcuOnTNFD7x6sgyo+bNr8vyn8DzrQx2movL2OXZlJkZlJmNgLMmyZ9XOEtwOIYoPO7yVVqHfELJ1z4po8i4S7FMUigzLMlaKmYFlWMll2p/lLxolhm6mj3anZ6NtMZ+pE60LPRnp3dNyCKsMNGZQfgXHd9YV5bGaFhSsrAtKw8WwSSKfVtqzjZYKPFvSOAoSJnR03y26NSUPFBY3INHh8CUMFKs3ka7cfZd74zR+QLpbfaCe+rOI8y043btVKVFsehz/NfPX6+o6jXFM7oL7uXqKil3CDUL6DesGvfmjqe3g1K5um9qZ1CankeNc9/hNlWyVIfIC1ATpztUocNDp822esmP9MwD736qmvznVxnuLuqa7bFaL23IjvstAQJa38Wl6abcX6K5OzctNnZ1AzyHsed9iM6ZuTCrWkboFBpZq9+8IMIxdqVGwXhqlaGG/AB/fHGogP6ym06XudQz+2oNzqOhOvne5r+MPSyeWuaxo5tR81mM7JtJ047h/lbRRK7dTKY7RZRGjh2dMWpmyANpoftuPE7p+3vI+k1JuPaej6fr2vj94GcPMysl372Pp79OWN26iYb5fTzP54LaAiRGyfRAAAAAElFTkSuQmCC;" vertex="1" parent="we7WmdxZvCQZfko0I5lv-3">
          <mxGeometry x="18.129999999999995" y="100" width="113.74" height="30" as="geometry" />
        </mxCell>
      </root>
    </mxGraphModel>
  </diagram>
</mxfile>
